<?xml version="1.0" encoding="UTF-8" standalone="no"?>
<svg
   xmlns:dc="http://purl.org/dc/elements/1.1/"
   xmlns:cc="http://creativecommons.org/ns#"
   xmlns:rdf="http://www.w3.org/1999/02/22-rdf-syntax-ns#"
   xmlns:svg="http://www.w3.org/2000/svg"
   xmlns="http://www.w3.org/2000/svg"
   id="svg50"
   xml:space="preserve"
   viewBox="0 0 1024 768"
   y="0px"
   x="0px"
   version="1.1"><metadata
     id="metadata56"><rdf:RDF><cc:Work
         rdf:about=""><dc:format>image/svg+xml</dc:format><dc:type
           rdf:resource="http://purl.org/dc/dcmitype/StillImage" /></cc:Work></rdf:RDF></metadata><defs
     id="defs54" /><style
     id="style2">
#logo-fade{
opacity: 0;
animation: fadeIn 4s ease-in forwards infinite;
}

@keyframes fadeIn { 0% { opacity:0; } 50% { opacity:0; } 100% { opacity:1; } }
@keyframes fadeOut { from { opacity:1; } to { opacity:0; } }

.outline{
opacity: 1;
stroke-dasharray: 50, 2000;
stroke-dashoffset: 2000;
}

#o1{
animation: dash1 4s ease-in-out forwards infinite;
}

@keyframes dash1 {
  0% {
    opacity: 1;
    stroke-dashoffset: 2000;
  }
  50% {
    opacity: 1;
    stroke-dashoffset: 1000;
  }
  100% {
    opacity: 0;
    stroke-dashoffset: 0;
  }
}

#o2{
animation: dash2 4s ease-in-out forwards infinite;
}

@keyframes dash2 {
  0% {
    opacity: 0.7;
    stroke-dashoffset: 2050;
  }
  50% {
    opacity: 0.35;
    stroke-dashoffset: 1025;
  }
  100% {
    opacity: 0;
    stroke-dashoffset: 0;
  }
}

#o3{
animation: dash3 4s ease-in-out forwards infinite;
}

@keyframes dash3 {
  0% {
    opacity: 0.45;
    stroke-dashoffset: 2100;
  }
  50% {
    opacity: 0.225;
    stroke-dashoffset: 1050;
  }
  100% {
    opacity: 0;
    stroke-dashoffset: 0;
  }
}

#o4{
animation: dash4 4s ease-in-out forwards infinite;
}

@keyframes dash4 {
  0% {
    opacity: 0.25;
    stroke-dashoffset: 2150;
  }
  50% {
    opacity: 0.125;
    stroke-dashoffset: 1100;
  }
  100% {
    opacity: 0;
    stroke-dashoffset: 0;
  }
}
</style><path
     stroke-linecap="round"
     stroke-linejoin="round"
     stroke-width="5"
     stroke="#3a3c99"
     fill="none"
     d="m187.04 215.86l0.05 113.64 0.04 113.65h38.24l0.05-94.53 0.05-94.52h573.26v259.61h-234.84c-129.16 0-266.79 0.06-305.84 0.13l-71.01 0.13 0.05 19.04 0.05 19.03 324.91 0.05 324.91 0.05v-336.27l-324.96-0.01h-324.96zm250.81 110.89v7.07h-0.22c-0.12 0-0.42 0.01-0.67 0.03-0.24 0.01-0.66 0.04-0.92 0.07-0.26 0.02-0.64 0.07-0.86 0.11-0.21 0.03-0.53 0.08-0.69 0.11-0.17 0.04-0.49 0.11-0.71 0.16s-0.6 0.15-0.84 0.22-0.61 0.19-0.82 0.26c-0.22 0.07-0.55 0.19-0.74 0.27s-0.47 0.19-0.61 0.26c-0.15 0.06-0.4 0.18-0.56 0.25-0.17 0.08-0.46 0.23-0.67 0.34-0.2 0.11-0.55 0.31-0.77 0.44-0.23 0.14-0.6 0.37-0.82 0.52s-0.56 0.4-0.76 0.55c-0.21 0.15-0.48 0.37-0.62 0.48-0.13 0.12-0.38 0.33-0.55 0.49-0.17 0.15-0.49 0.45-0.71 0.67s-0.54 0.56-0.72 0.76c-0.17 0.21-0.4 0.48-0.51 0.61-0.1 0.13-0.29 0.36-0.4 0.52-0.12 0.16-0.34 0.46-0.49 0.68s-0.36 0.55-0.47 0.74c-0.11 0.18-0.3 0.51-0.42 0.73s-0.3 0.56-0.39 0.76c-0.1 0.2-0.24 0.51-0.32 0.69-0.08 0.19-0.19 0.46-0.25 0.61s-0.17 0.47-0.25 0.71c-0.09 0.25-0.21 0.63-0.27 0.86-0.07 0.23-0.16 0.61-0.21 0.83-0.06 0.23-0.13 0.56-0.16 0.74s-0.08 0.51-0.12 0.73c-0.03 0.23-0.07 0.58-0.09 0.8-0.02 0.21-0.04 0.44-0.05 0.5-0.01 0.07-0.02 5.32-0.03 11.67l-0.02 11.55-0.04 0.32c-0.02 0.17-0.07 0.48-0.1 0.68s-0.11 0.55-0.16 0.78c-0.06 0.23-0.16 0.58-0.23 0.79s-0.18 0.49-0.23 0.62c-0.06 0.14-0.18 0.41-0.27 0.61-0.1 0.19-0.25 0.48-0.33 0.63-0.09 0.16-0.25 0.42-0.36 0.59-0.11 0.16-0.3 0.42-0.41 0.57-0.11 0.16-0.31 0.4-0.44 0.55s-0.37 0.41-0.53 0.57-0.42 0.39-0.57 0.52c-0.14 0.13-0.4 0.34-0.57 0.47s-0.43 0.31-0.58 0.41c-0.15 0.09-0.39 0.24-0.54 0.33-0.15 0.08-0.38 0.2-0.51 0.27-0.14 0.07-0.39 0.18-0.57 0.26s-0.42 0.17-0.54 0.21c-0.12 0.05-0.33 0.12-0.47 0.16-0.14 0.05-0.4 0.12-0.58 0.16-0.17 0.05-0.47 0.11-0.65 0.15-0.18 0.03-0.5 0.08-0.72 0.1-0.22 0.03-0.57 0.05-0.8 0.06l-0.4 0.02v-7.08h-21.23v21.23h21.23v-7.08h0.22c0.12 0 0.42-0.01 0.67-0.03 0.26-0.01 0.67-0.04 0.92-0.07 0.26-0.02 0.64-0.07 0.85-0.1 0.22-0.04 0.58-0.1 0.8-0.14 0.23-0.05 0.59-0.13 0.79-0.18 0.21-0.05 0.51-0.13 0.68-0.18 0.16-0.05 0.5-0.16 0.76-0.25 0.26-0.08 0.65-0.23 0.86-0.31 0.21-0.09 0.55-0.23 0.76-0.32 0.2-0.09 0.53-0.26 0.73-0.36s0.53-0.28 0.72-0.39c0.2-0.11 0.47-0.28 0.61-0.37 0.15-0.09 0.41-0.26 0.59-0.39 0.19-0.12 0.46-0.32 0.62-0.43 0.15-0.12 0.39-0.3 0.52-0.41 0.13-0.1 0.4-0.33 0.6-0.51 0.2-0.17 0.53-0.49 0.73-0.69 0.21-0.2 0.49-0.49 0.63-0.64 0.14-0.16 0.38-0.44 0.54-0.63s0.41-0.51 0.57-0.72c0.15-0.21 0.39-0.53 0.52-0.73 0.13-0.19 0.34-0.53 0.48-0.76s0.34-0.58 0.44-0.78c0.11-0.2 0.27-0.5 0.34-0.66 0.08-0.16 0.19-0.42 0.26-0.56 0.06-0.15 0.18-0.42 0.25-0.62 0.08-0.19 0.2-0.52 0.27-0.73 0.08-0.22 0.19-0.59 0.26-0.83s0.17-0.62 0.23-0.84c0.05-0.23 0.13-0.61 0.18-0.85 0.04-0.24 0.1-0.6 0.12-0.8 0.03-0.19 0.07-0.51 0.09-0.71 0.02-0.21 0.04-0.57 0.06-0.82 0.01-0.29 0.02-4.34 0.02-11.46 0-7.21 0.01-11.14 0.02-11.36 0.02-0.19 0.04-0.47 0.06-0.62 0.02-0.16 0.06-0.4 0.09-0.55 0.02-0.14 0.07-0.38 0.1-0.52 0.04-0.14 0.11-0.42 0.17-0.62 0.06-0.21 0.15-0.48 0.2-0.61s0.14-0.37 0.21-0.53 0.2-0.45 0.3-0.63c0.09-0.19 0.26-0.49 0.36-0.67 0.11-0.18 0.29-0.45 0.39-0.6 0.11-0.15 0.31-0.42 0.44-0.58 0.14-0.17 0.37-0.44 0.51-0.59s0.37-0.38 0.51-0.51c0.14-0.14 0.37-0.34 0.51-0.45 0.13-0.11 0.4-0.32 0.6-0.46s0.51-0.35 0.69-0.46 0.53-0.29 0.77-0.41c0.25-0.12 0.58-0.27 0.73-0.34 0.16-0.06 0.44-0.16 0.63-0.22 0.19-0.07 0.53-0.17 0.77-0.22 0.23-0.06 0.57-0.13 0.76-0.17 0.19-0.03 0.49-0.07 0.68-0.09 0.18-0.02 0.5-0.04 0.72-0.05l0.4-0.02v7.09h21.23v-21.23h-10.62-10.61zm-169.77 3.74l-5.63 63h18l2-22.63h2.38l0.06 0.13h-0.06l10.75 22.62h20.87l-0.06-0.12h0.06l-11.5-24.13c10-3 15.25-10.75 15.25-20.37 0-9.13-7.37-18.5-17.75-18.5h-16.37-5.5-12.5zm65.84 0l-1.21 13.5h-0.04l-4.38 49.5h18l2-22.63h11.5c17.13 0 26.25-9.5 26.25-22 0-9-7.37-18.37-17.75-18.37h-16.37-5.5-12.5zm175.85 0l-1.25 13.5h18l-4.38 49.5h18 0.13l4.37-49.5h17.88l1.25-13.5h-18-18-18zm64.1 0l-1.12 13.5-4.38 49.5h18 27.13l1.25-13.5h-27.13l1-11.25h17.75l1.25-13.5h-17.87l1-11.25h26.87l1.25-13.5h-26.87-18.13zm72.34 0l-24.75 63h19.12l4-11.13h19.38l2 11.13h18.75l-13.5-63h-8.25-8.63-8.12zm54.19 0l-5.62 63h18l3.75-41.25 4.5 41.25h13.5l11.5-41.13-3.63 41.13h18l5.63-63h-13.88-4.12-4.63l-11.12 39.87-3.88-39.87h-9.87-4.38-13.75zm-255.47 3.33h3.53 3.54v7.08h-7.07v-7.08zm-94.14 10.17h11.63c3.12 0 5.75 3.25 5.75 6-0.13 2.62-2.38 7.37-7.38 7.37h-11.25l1.25-13.37zm-54.34 0.12c3.13 0 5.75 3.25 5.75 6s-2.25 7.5-7.25 7.5h-11.25l1.25-13.37h11.5v-0.13zm360.88 2.25l4.13 22.5h-12.13l8-22.5zm-261.94 37h3.53 3.54v7.08h-7.07v-7.08zm228.63 21.95v20.57h3.19v-0.56-20.01h-3.19zm37.66 0.66c-0.47 0-0.92 0.17-1.26 0.49-0.38 0.36-0.53 0.88-0.53 1.44s0.15 1.08 0.52 1.45l0.01 0.01c0.33 0.32 0.79 0.49 1.26 0.49 0.46 0 0.91-0.17 1.24-0.48l0.01-0.01c0.38-0.37 0.53-0.89 0.53-1.46 0-0.56-0.15-1.09-0.54-1.44-0.33-0.32-0.78-0.49-1.24-0.49zm-64.65 0.25c-1.83 0-3.37 0.44-4.55 1.37s-1.8 2.25-1.8 3.8c0 1.44 0.41 2.69 1.23 3.63 0.83 0.95 2.13 1.7 3.88 2.32 1.2 0.43 2.09 0.81 2.62 1.12h0.01c0.54 0.32 0.89 0.64 1.07 0.94l0.01 0.01c0.18 0.29 0.29 0.69 0.29 1.25 0 0.81-0.26 1.35-0.85 1.8-0.57 0.43-1.52 0.69-2.86 0.69-0.83 0-1.66-0.09-2.51-0.27-0.85-0.17-1.63-0.41-2.35-0.72l-0.77-0.32v3.24l0.31 0.16c1.29 0.61 3.03 0.89 5.24 0.89 2.09 0 3.81-0.47 5.1-1.47s1.96-2.46 1.96-4.2c0-1.36-0.41-2.54-1.23-3.43-0.83-0.91-2.22-1.65-4.17-2.35-1.13-0.4-1.95-0.77-2.45-1.07-0.49-0.3-0.81-0.62-0.98-0.91-0.17-0.3-0.28-0.72-0.28-1.28 0-0.72 0.23-1.18 0.73-1.57 0.51-0.38 1.26-0.61 2.3-0.61 1.34 0 2.73 0.3 4.18 0.91l0.55 0.23 1.04-2.9-0.48-0.21c-1.6-0.7-3.36-1.05-5.24-1.05zm-266.4 0.26v19.4h3.25v-7.6h2.93l4.42 7.6h2.84l0.48-0.85-4.65-7.7c2.19-0.98 3.44-2.75 3.44-5.13 0-1.84-0.61-3.33-1.82-4.31-1.22-0.98-3-1.41-5.31-1.41h-5.58zm153.5 0v19.4h3.25v-7.19h1.59c2.43 0 4.37-0.51 5.76-1.61 1.4-1.1 2.11-2.74 2.11-4.71 0-1.9-0.65-3.44-1.93-4.44s-3.12-1.45-5.48-1.45h-5.3zm-105.44 1.4l-0.92 3.08-2.06 0.9v1.93h1.96v7.59c0 1.48 0.36 2.69 1.15 3.52 0.79 0.84 1.96 1.23 3.39 1.23 0.38 0 0.8-0.04 1.25-0.12h0.01c0.47-0.08 0.84-0.17 1.15-0.31l0.32-0.16v-2.68l-0.72 0.21c-0.16 0.04-0.41 0.1-0.73 0.15h-0.01c0 0.01 0 0.01-0.01 0.01-0.31 0.04-0.63 0.06-0.97 0.06-0.56 0-0.91-0.15-1.19-0.47-0.28-0.31-0.44-0.79-0.44-1.53v-7.5h3.97v-2.73h-3.97v-3.18h-2.18zm89 0l-0.92 3.08-2.06 0.9v1.93h1.96v7.59c0 1.48 0.36 2.69 1.15 3.52 0.79 0.84 1.96 1.23 3.39 1.23 0.38 0 0.8-0.04 1.25-0.12h0.01c0.47-0.08 0.84-0.17 1.15-0.31l0.32-0.16v-2.68l-0.72 0.21c-0.16 0.04-0.41 0.1-0.73 0.15h-0.01c0 0.01 0 0.01-0.01 0.01-0.31 0.04-0.63 0.06-0.97 0.06-0.56 0-0.91-0.15-1.19-0.47-0.28-0.31-0.44-0.79-0.44-1.53v-7.5h3.97v-2.73h-3.97v-3.18h-2.18zm62.2 0l-0.92 3.08-2.06 0.9v1.93h1.96v7.59c0 1.48 0.36 2.69 1.15 3.52 0.79 0.84 1.96 1.23 3.38 1.23 0.39 0 0.81-0.04 1.26-0.12h0.02c0.46-0.08 0.83-0.17 1.14-0.31l0.32-0.16v-2.68l-0.72 0.21c-0.16 0.04-0.41 0.1-0.73 0.15h-0.01c-0.31 0.05-0.64 0.07-0.97 0.07-0.57 0-0.91-0.15-1.2-0.47-0.28-0.31-0.45-0.79-0.45-1.53v-7.5h3.98v-2.73h-3.98v-3.18h-2.17zm120.7 0l-0.92 3.08-2.06 0.9v1.93h1.96v7.59c0 1.48 0.36 2.69 1.15 3.52 0.79 0.84 1.96 1.23 3.39 1.23 0.38 0 0.8-0.04 1.25-0.12h0.02c0.46-0.08 0.83-0.17 1.14-0.31l0.32-0.16v-2.68l-0.72 0.21c-0.16 0.04-0.41 0.1-0.73 0.15h-0.01c0 0.01 0 0.01-0.01 0.01-0.31 0.04-0.63 0.06-0.97 0.06-0.56 0-0.9-0.15-1.19-0.47-0.28-0.31-0.44-0.79-0.44-1.53v-7.5h3.97v-2.73h-3.97v-3.18h-2.18zm-163.21 1.56h1.81c1.61 0 2.73 0.3 3.37 0.77 0.64 0.49 0.96 1.17 0.96 2.26 0 1.22-0.35 1.97-1.03 2.47-0.68 0.49-1.94 0.8-3.76 0.8h-1.35v-6.3zm-153.5 0.02h2.2c1.51 0 2.54 0.28 3.09 0.69s0.85 1.07 0.85 2.17c0 1.08-0.29 1.78-0.85 2.26-0.55 0.46-1.51 0.75-2.94 0.75h-2.35v-5.87zm19.7 1.35c-1.97 0-3.63 0.73-4.82 2.15-1.18 1.42-1.75 3.32-1.75 5.62 0 2.29 0.62 4.17 1.9 5.52 1.29 1.35 3.07 2.03 5.21 2.03 0.95 0 1.77-0.08 2.48-0.23 0.7-0.14 1.43-0.38 2.19-0.71l0.34-0.14v-3.07l-0.78 0.33c-1.38 0.59-2.76 0.88-4.16 0.88-1.29 0-2.19-0.36-2.85-1.07-0.55-0.6-0.86-1.53-0.97-2.72h9.34v-1.87c0-1.95-0.54-3.6-1.64-4.83-1.1-1.26-2.65-1.89-4.49-1.89zm14.92 0c-1.66 0-3.03 0.34-4.06 1.08-1.03 0.73-1.59 1.82-1.59 3.09 0 0.7 0.14 1.34 0.46 1.89v0.01c0.32 0.53 0.78 0.99 1.37 1.39l0.01 0.01c0.61 0.39 1.54 0.81 2.83 1.29 1.32 0.5 2.19 0.96 2.54 1.25v0.01h0.01c0.36 0.29 0.49 0.56 0.49 0.93 0 0.55-0.17 0.84-0.6 1.1-0.46 0.26-1.19 0.43-2.22 0.43-0.65 0-1.33-0.08-2.05-0.26-0.71-0.19-1.37-0.43-1.99-0.75l-0.82-0.41v3.16l0.29 0.16c1.14 0.65 2.65 0.94 4.52 0.94 1.79 0 3.25-0.36 4.33-1.15s1.66-1.99 1.66-3.4c0-1.02-0.35-1.94-1.02-2.65-0.69-0.72-1.84-1.32-3.5-1.92-1.17-0.44-1.97-0.78-2.32-0.98-0.37-0.21-0.61-0.41-0.73-0.58-0.11-0.15-0.17-0.34-0.17-0.61 0-0.37 0.11-0.56 0.48-0.8 0.36-0.22 1.01-0.37 1.94-0.37 1.02 0 2.19 0.26 3.52 0.8l0.51 0.21 1.18-2.71-0.52-0.22c-1.47-0.62-3-0.94-4.55-0.94zm59.63 0c-0.96 0-1.87 0.28-2.67 0.82-0.47 0.31-0.8 0.85-1.18 1.31l-0.18-1.88h-2.78v14.82h3.2v-7.91c0-1.23 0.34-2.2 1.03-3 0.71-0.8 1.47-1.16 2.43-1.16 0.38 0 0.84 0.06 1.38 0.18l0.59 0.13 0.45-3.05-0.52-0.1c-0.53-0.11-1.11-0.16-1.75-0.16zm28.12 0c-1.01 0-1.95 0.2-2.8 0.61-0.53 0.26-0.86 0.71-1.25 1.1l-0.26-1.46h-2.72v14.82h3.19v-7.75c0-1.71 0.34-2.86 0.87-3.47 0.54-0.63 1.39-0.97 2.72-0.97 0.99 0 1.61 0.24 1.98 0.64 0.38 0.42 0.62 1.09 0.62 2.12v9.43h0.55 2.64v-9.5c0-1.84-0.44-3.28-1.42-4.22-0.97-0.93-2.38-1.35-4.12-1.35zm67.23 0c-0.96 0-1.87 0.28-2.68 0.82-0.46 0.31-0.79 0.85-1.17 1.31l-0.18-1.88h-2.78v14.82h3.2v-7.91c0-1.23 0.34-2.2 1.03-3 0.71-0.8 1.47-1.16 2.43-1.16 0.38 0 0.84 0.06 1.38 0.18l0.58 0.13 0.46-3.05-0.52-0.1c-0.53-0.11-1.11-0.16-1.75-0.16zm22.92 0c-1.01 0-1.95 0.2-2.8 0.61-0.53 0.26-0.86 0.71-1.25 1.1l-0.26-1.46h-2.72v14.82h3.19v-7.75c0-1.71 0.34-2.86 0.87-3.47 0.54-0.63 1.39-0.97 2.72-0.97 0.99 0 1.61 0.24 1.98 0.64 0.38 0.42 0.61 1.09 0.61 2.12v9.43h0.56 2.64v-9.5c0-1.84-0.44-3.28-1.42-4.22-0.97-0.93-2.38-1.35-4.12-1.35zm16.08 0c-1.97 0-3.62 0.73-4.82 2.15-1.18 1.42-1.75 3.32-1.75 5.62 0 2.29 0.62 4.17 1.9 5.52 1.29 1.35 3.07 2.03 5.21 2.03 0.95 0 1.77-0.08 2.47-0.23h0.01c0.7-0.14 1.43-0.38 2.19-0.71l0.34-0.14v-3.07l-0.78 0.33c-1.38 0.59-2.76 0.88-4.16 0.88-1.29 0-2.19-0.36-2.85-1.07-0.55-0.6-0.86-1.53-0.97-2.72h9.35v-1.87c0-1.95-0.55-3.6-1.65-4.83v-0.01c-1.1-1.25-2.65-1.88-4.49-1.88zm16.95 0c-0.96 0-1.87 0.28-2.68 0.82-0.46 0.31-0.79 0.85-1.17 1.31l-0.18-1.88h-2.78v14.82h3.19v-7.91c0-1.23 0.35-2.2 1.04-3 0.71-0.8 1.47-1.16 2.43-1.16 0.38 0 0.84 0.06 1.38 0.18l0.58 0.13 0.46-3.05-0.52-0.1c-0.53-0.11-1.11-0.16-1.75-0.16zm33.66 0c-2.1 0-3.84 0.68-5.06 2.06-1.23 1.36-1.82 3.26-1.82 5.58 0 1.51 0.27 2.86 0.83 4.02 0.55 1.16 1.37 2.08 2.41 2.71s2.24 0.95 3.55 0.95c2.1 0 3.85-0.69 5.08-2.06v-0.01c1.24-1.38 1.83-3.28 1.83-5.61 0-2.27-0.6-4.15-1.84-5.54-1.23-1.4-2.94-2.1-4.98-2.1zm61.2 0c-2.1 0-3.84 0.69-5.06 2.06-1.23 1.36-1.82 3.26-1.82 5.58 0 1.51 0.27 2.86 0.83 4.02s1.37 2.08 2.41 2.71 2.24 0.95 3.56 0.95c2.1 0 3.84-0.69 5.07-2.06v-0.01h0.01c1.23-1.38 1.83-3.28 1.83-5.61 0-2.27-0.61-4.15-1.84-5.54h-0.01c-1.23-1.4-2.94-2.1-4.98-2.1zm17.96 0c-1.01 0-1.95 0.2-2.8 0.61-0.53 0.26-0.86 0.71-1.25 1.1l-0.26-1.46h-2.72v14.82h3.19v-7.75c0-1.71 0.34-2.86 0.87-3.47 0.54-0.63 1.39-0.97 2.72-0.97 0.99 0 1.61 0.24 1.98 0.64 0.38 0.42 0.62 1.09 0.62 2.12v9.43h0.55 2.64v-9.5c0-1.84-0.44-3.28-1.42-4.22-0.97-0.93-2.38-1.35-4.12-1.35zm-298.37 0.02c-0.86 0-1.71 0.11-2.57 0.33-0.84 0.22-1.62 0.52-2.34 0.91l-0.43 0.24 1.04 2.61 0.54-0.26c1.39-0.68 2.61-1 3.63-1 0.93 0 1.48 0.23 1.8 0.59v0.01c0.34 0.36 0.56 1 0.56 2v0.3l-1.79 0.06c-2.27 0.07-4.02 0.47-5.26 1.28-1.25 0.81-1.92 2.1-1.92 3.63 0 1.4 0.44 2.59 1.34 3.4 0.89 0.81 2.12 1.2 3.57 1.2 1.08 0 2-0.16 2.77-0.5 0.55-0.25 1.05-0.81 1.55-1.31l0.33 1.56h0.45 2.1v-9.91c0-1.69-0.42-3.04-1.37-3.9-0.92-0.86-2.28-1.24-4-1.24zm45.2 0c-0.86 0-1.71 0.11-2.56 0.33h-0.01c-0.84 0.22-1.62 0.52-2.33 0.91l-0.44 0.24 1.04 2.61 0.54-0.26c1.39-0.68 2.61-1 3.64-1 0.92 0 1.47 0.23 1.79 0.59v0.01c0.34 0.36 0.56 1 0.56 2v0.3l-1.79 0.06c-2.27 0.07-4.02 0.47-5.26 1.28-1.25 0.81-1.91 2.1-1.91 3.63 0 1.4 0.43 2.59 1.33 3.4s2.12 1.2 3.57 1.2c1.08 0 2-0.16 2.77-0.5 0.55-0.25 1.05-0.8 1.55-1.31l0.33 1.56h0.46 2.09v-9.91c0-1.69-0.43-3.04-1.37-3.9-0.92-0.86-2.29-1.24-4-1.24zm67.45 0c-0.86 0-1.71 0.11-2.57 0.33-0.84 0.22-1.62 0.52-2.34 0.91l-0.43 0.24 1.04 2.61 0.54-0.26c1.39-0.68 2.61-1 3.63-1 0.93 0 1.48 0.23 1.8 0.59l0.01 0.01c0.33 0.36 0.55 1 0.55 2v0.3l-1.79 0.06c-2.27 0.07-4.02 0.47-5.26 1.28-1.25 0.81-1.92 2.1-1.92 3.63 0 1.4 0.44 2.59 1.34 3.4 0.89 0.81 2.12 1.2 3.58 1.2 1.07 0 1.99-0.16 2.76-0.5 0.55-0.25 1.04-0.8 1.55-1.31l0.33 1.56h0.45 2.1v-9.91c0-1.69-0.42-3.04-1.36-3.9-0.93-0.86-2.29-1.24-4.01-1.24zm-102.66 0.23v9.52c0 1.83 0.44 3.27 1.41 4.2v0.01c0.97 0.92 2.38 1.34 4.14 1.34 1.03 0 1.98-0.2 2.81-0.6 0.52-0.24 0.85-0.69 1.24-1.08l0.23 1.43h2.75v-14.82h-3.19v7.76c0 1.7-0.34 2.85-0.87 3.47-0.53 0.63-1.38 0.98-2.71 0.98-0.99 0-1.6-0.24-1.98-0.65s-0.61-1.08-0.61-2.12v-9.44h-0.56-2.66zm228.1 0v9.52c0 1.83 0.44 3.27 1.41 4.2v0.01c0.97 0.92 2.38 1.34 4.14 1.34 1.03 0 1.98-0.2 2.81-0.6 0.52-0.24 0.85-0.69 1.24-1.08l0.23 1.43h2.75v-14.82h-3.19v7.76c0 1.7-0.34 2.85-0.87 3.47-0.53 0.63-1.38 0.98-2.71 0.98-0.99 0-1.6-0.24-1.98-0.65s-0.61-1.08-0.61-2.12v-9.44h-0.56-2.66zm28.1 0v14.82h3.2v-0.56-14.26h-3.2zm-306.52 2.6c0.97 0 1.6 0.28 2.07 0.85l0.01 0.01c0.37 0.44 0.49 1.23 0.58 2.07h-5.65c0.16-0.79 0.35-1.57 0.77-2.03v-0.01c0.55-0.6 1.25-0.89 2.22-0.89zm208.91 0c0.96 0 1.59 0.28 2.07 0.85v0.01c0.37 0.44 0.49 1.23 0.58 2.07h-5.65c0.16-0.79 0.35-1.57 0.77-2.03v-0.01c0.56-0.6 1.25-0.89 2.23-0.89zm50.57 0.03c1.25 0 2.08 0.37 2.67 1.14v0.01c0.6 0.76 0.94 1.95 0.94 3.62 0 1.68-0.34 2.89-0.94 3.66v0.01c-0.59 0.77-1.41 1.14-2.65 1.14-1.23 0-2.04-0.38-2.64-1.15-0.59-0.78-0.93-1.99-0.93-3.66 0-1.7 0.33-2.9 0.92-3.65 0.58-0.75 1.39-1.12 2.63-1.12zm61.2 0c1.25 0 2.08 0.37 2.67 1.14v0.01c0.6 0.76 0.95 1.95 0.95 3.62 0 1.68-0.35 2.89-0.95 3.66v0.01c-0.59 0.77-1.41 1.14-2.65 1.14-1.23 0-2.04-0.38-2.64-1.15-0.59-0.78-0.93-1.99-0.93-3.66 0-1.7 0.34-2.9 0.92-3.65s1.39-1.12 2.63-1.12zm-278.17 5.47v0.66c0 1.16-0.32 1.97-0.94 2.57-0.62 0.59-1.46 0.9-2.65 0.9-0.73 0-1.22-0.17-1.55-0.45-0.31-0.28-0.48-0.65-0.48-1.29 0-0.81 0.25-1.28 0.82-1.63 0.59-0.37 1.7-0.64 3.3-0.69l1.5-0.07zm45.2 0v0.66c0 1.16-0.32 1.97-0.94 2.57-0.62 0.59-1.46 0.9-2.65 0.9-0.73 0-1.22-0.17-1.55-0.45-0.31-0.28-0.48-0.65-0.48-1.29 0-0.81 0.25-1.28 0.82-1.63 0.59-0.37 1.7-0.64 3.3-0.69l1.5-0.07zm67.45 0v0.66c0 1.16-0.32 1.97-0.94 2.57-0.62 0.59-1.46 0.9-2.65 0.9-0.73 0-1.22-0.17-1.55-0.45-0.31-0.28-0.48-0.65-0.48-1.29 0-0.81 0.25-1.28 0.82-1.63 0.59-0.37 1.7-0.64 3.3-0.69l1.5-0.07z"
     id="o4"
     class="outline" /><path
     stroke-linecap="round"
     stroke-linejoin="round"
     stroke-width="5"
     stroke="#3a3c99"
     fill="none"
     d="m187.04 215.86l0.05 113.64 0.04 113.65h38.24l0.05-94.53 0.05-94.52h573.26v259.61h-234.84c-129.16 0-266.79 0.06-305.84 0.13l-71.01 0.13 0.05 19.04 0.05 19.03 324.91 0.05 324.91 0.05v-336.27l-324.96-0.01h-324.96zm250.81 110.89v7.07h-0.22c-0.12 0-0.42 0.01-0.67 0.03-0.24 0.01-0.66 0.04-0.92 0.07-0.26 0.02-0.64 0.07-0.86 0.11-0.21 0.03-0.53 0.08-0.69 0.11-0.17 0.04-0.49 0.11-0.71 0.16s-0.6 0.15-0.84 0.22-0.61 0.19-0.82 0.26c-0.22 0.07-0.55 0.19-0.74 0.27s-0.47 0.19-0.61 0.26c-0.15 0.06-0.4 0.18-0.56 0.25-0.17 0.08-0.46 0.23-0.67 0.34-0.2 0.11-0.55 0.31-0.77 0.44-0.23 0.14-0.6 0.37-0.82 0.52s-0.56 0.4-0.76 0.55c-0.21 0.15-0.48 0.37-0.62 0.48-0.13 0.12-0.38 0.33-0.55 0.49-0.17 0.15-0.49 0.45-0.71 0.67s-0.54 0.56-0.72 0.76c-0.17 0.21-0.4 0.48-0.51 0.61-0.1 0.13-0.29 0.36-0.4 0.52-0.12 0.16-0.34 0.46-0.49 0.68s-0.36 0.55-0.47 0.74c-0.11 0.18-0.3 0.51-0.42 0.73s-0.3 0.56-0.39 0.76c-0.1 0.2-0.24 0.51-0.32 0.69-0.08 0.19-0.19 0.46-0.25 0.61s-0.17 0.47-0.25 0.71c-0.09 0.25-0.21 0.63-0.27 0.86-0.07 0.23-0.16 0.61-0.21 0.83-0.06 0.23-0.13 0.56-0.16 0.74s-0.08 0.51-0.12 0.73c-0.03 0.23-0.07 0.58-0.09 0.8-0.02 0.21-0.04 0.44-0.05 0.5-0.01 0.07-0.02 5.32-0.03 11.67l-0.02 11.55-0.04 0.32c-0.02 0.17-0.07 0.48-0.1 0.68s-0.11 0.55-0.16 0.78c-0.06 0.23-0.16 0.58-0.23 0.79s-0.18 0.49-0.23 0.62c-0.06 0.14-0.18 0.41-0.27 0.61-0.1 0.19-0.25 0.48-0.33 0.63-0.09 0.16-0.25 0.42-0.36 0.59-0.11 0.16-0.3 0.42-0.41 0.57-0.11 0.16-0.31 0.4-0.44 0.55s-0.37 0.41-0.53 0.57-0.42 0.39-0.57 0.52c-0.14 0.13-0.4 0.34-0.57 0.47s-0.43 0.31-0.58 0.41c-0.15 0.09-0.39 0.24-0.54 0.33-0.15 0.08-0.38 0.2-0.51 0.27-0.14 0.07-0.39 0.18-0.57 0.26s-0.42 0.17-0.54 0.21c-0.12 0.05-0.33 0.12-0.47 0.16-0.14 0.05-0.4 0.12-0.58 0.16-0.17 0.05-0.47 0.11-0.65 0.15-0.18 0.03-0.5 0.08-0.72 0.1-0.22 0.03-0.57 0.05-0.8 0.06l-0.4 0.02v-7.08h-21.23v21.23h21.23v-7.08h0.22c0.12 0 0.42-0.01 0.67-0.03 0.26-0.01 0.67-0.04 0.92-0.07 0.26-0.02 0.64-0.07 0.85-0.1 0.22-0.04 0.58-0.1 0.8-0.14 0.23-0.05 0.59-0.13 0.79-0.18 0.21-0.05 0.51-0.13 0.68-0.18 0.16-0.05 0.5-0.16 0.76-0.25 0.26-0.08 0.65-0.23 0.86-0.31 0.21-0.09 0.55-0.23 0.76-0.32 0.2-0.09 0.53-0.26 0.73-0.36s0.53-0.28 0.72-0.39c0.2-0.11 0.47-0.28 0.61-0.37 0.15-0.09 0.41-0.26 0.59-0.39 0.19-0.12 0.46-0.32 0.62-0.43 0.15-0.12 0.39-0.3 0.52-0.41 0.13-0.1 0.4-0.33 0.6-0.51 0.2-0.17 0.53-0.49 0.73-0.69 0.21-0.2 0.49-0.49 0.63-0.64 0.14-0.16 0.38-0.44 0.54-0.63s0.41-0.51 0.57-0.72c0.15-0.21 0.39-0.53 0.52-0.73 0.13-0.19 0.34-0.53 0.48-0.76s0.34-0.58 0.44-0.78c0.11-0.2 0.27-0.5 0.34-0.66 0.08-0.16 0.19-0.42 0.26-0.56 0.06-0.15 0.18-0.42 0.25-0.62 0.08-0.19 0.2-0.52 0.27-0.73 0.08-0.22 0.19-0.59 0.26-0.83s0.17-0.62 0.23-0.84c0.05-0.23 0.13-0.61 0.18-0.85 0.04-0.24 0.1-0.6 0.12-0.8 0.03-0.19 0.07-0.51 0.09-0.71 0.02-0.21 0.04-0.57 0.06-0.82 0.01-0.29 0.02-4.34 0.02-11.46 0-7.21 0.01-11.14 0.02-11.36 0.02-0.19 0.04-0.47 0.06-0.62 0.02-0.16 0.06-0.4 0.09-0.55 0.02-0.14 0.07-0.38 0.1-0.52 0.04-0.14 0.11-0.42 0.17-0.62 0.06-0.21 0.15-0.48 0.2-0.61s0.14-0.37 0.21-0.53 0.2-0.45 0.3-0.63c0.09-0.19 0.26-0.49 0.36-0.67 0.11-0.18 0.29-0.45 0.39-0.6 0.11-0.15 0.31-0.42 0.44-0.58 0.14-0.17 0.37-0.44 0.51-0.59s0.37-0.38 0.51-0.51c0.14-0.14 0.37-0.34 0.51-0.45 0.13-0.11 0.4-0.32 0.6-0.46s0.51-0.35 0.69-0.46 0.53-0.29 0.77-0.41c0.25-0.12 0.58-0.27 0.73-0.34 0.16-0.06 0.44-0.16 0.63-0.22 0.19-0.07 0.53-0.17 0.77-0.22 0.23-0.06 0.57-0.13 0.76-0.17 0.19-0.03 0.49-0.07 0.68-0.09 0.18-0.02 0.5-0.04 0.72-0.05l0.4-0.02v7.09h21.23v-21.23h-10.62-10.61zm-169.77 3.74l-5.63 63h18l2-22.63h2.38l0.06 0.13h-0.06l10.75 22.62h20.87l-0.06-0.12h0.06l-11.5-24.13c10-3 15.25-10.75 15.25-20.37 0-9.13-7.37-18.5-17.75-18.5h-16.37-5.5-12.5zm65.84 0l-1.21 13.5h-0.04l-4.38 49.5h18l2-22.63h11.5c17.13 0 26.25-9.5 26.25-22 0-9-7.37-18.37-17.75-18.37h-16.37-5.5-12.5zm175.85 0l-1.25 13.5h18l-4.38 49.5h18 0.13l4.37-49.5h17.88l1.25-13.5h-18-18-18zm64.1 0l-1.12 13.5-4.38 49.5h18 27.13l1.25-13.5h-27.13l1-11.25h17.75l1.25-13.5h-17.87l1-11.25h26.87l1.25-13.5h-26.87-18.13zm72.34 0l-24.75 63h19.12l4-11.13h19.38l2 11.13h18.75l-13.5-63h-8.25-8.63-8.12zm54.19 0l-5.62 63h18l3.75-41.25 4.5 41.25h13.5l11.5-41.13-3.63 41.13h18l5.63-63h-13.88-4.12-4.63l-11.12 39.87-3.88-39.87h-9.87-4.38-13.75zm-255.47 3.33h3.53 3.54v7.08h-7.07v-7.08zm-94.14 10.17h11.63c3.12 0 5.75 3.25 5.75 6-0.13 2.62-2.38 7.37-7.38 7.37h-11.25l1.25-13.37zm-54.34 0.12c3.13 0 5.75 3.25 5.75 6s-2.25 7.5-7.25 7.5h-11.25l1.25-13.37h11.5v-0.13zm360.88 2.25l4.13 22.5h-12.13l8-22.5zm-261.94 37h3.53 3.54v7.08h-7.07v-7.08zm228.63 21.95v20.57h3.19v-0.56-20.01h-3.19zm37.66 0.66c-0.47 0-0.92 0.17-1.26 0.49-0.38 0.36-0.53 0.88-0.53 1.44s0.15 1.08 0.52 1.45l0.01 0.01c0.33 0.32 0.79 0.49 1.26 0.49 0.46 0 0.91-0.17 1.24-0.48l0.01-0.01c0.38-0.37 0.53-0.89 0.53-1.46 0-0.56-0.15-1.09-0.54-1.44-0.33-0.32-0.78-0.49-1.24-0.49zm-64.65 0.25c-1.83 0-3.37 0.44-4.55 1.37s-1.8 2.25-1.8 3.8c0 1.44 0.41 2.69 1.23 3.63 0.83 0.95 2.13 1.7 3.88 2.32 1.2 0.43 2.09 0.81 2.62 1.12h0.01c0.54 0.32 0.89 0.64 1.07 0.94l0.01 0.01c0.18 0.29 0.29 0.69 0.29 1.25 0 0.81-0.26 1.35-0.85 1.8-0.57 0.43-1.52 0.69-2.86 0.69-0.83 0-1.66-0.09-2.51-0.27-0.85-0.17-1.63-0.41-2.35-0.72l-0.77-0.32v3.24l0.31 0.16c1.29 0.61 3.03 0.89 5.24 0.89 2.09 0 3.81-0.47 5.1-1.47s1.96-2.46 1.96-4.2c0-1.36-0.41-2.54-1.23-3.43-0.83-0.91-2.22-1.65-4.17-2.35-1.13-0.4-1.95-0.77-2.45-1.07-0.49-0.3-0.81-0.62-0.98-0.91-0.17-0.3-0.28-0.72-0.28-1.28 0-0.72 0.23-1.18 0.73-1.57 0.51-0.38 1.26-0.61 2.3-0.61 1.34 0 2.73 0.3 4.18 0.91l0.55 0.23 1.04-2.9-0.48-0.21c-1.6-0.7-3.36-1.05-5.24-1.05zm-266.4 0.26v19.4h3.25v-7.6h2.93l4.42 7.6h2.84l0.48-0.85-4.65-7.7c2.19-0.98 3.44-2.75 3.44-5.13 0-1.84-0.61-3.33-1.82-4.31-1.22-0.98-3-1.41-5.31-1.41h-5.58zm153.5 0v19.4h3.25v-7.19h1.59c2.43 0 4.37-0.51 5.76-1.61 1.4-1.1 2.11-2.74 2.11-4.71 0-1.9-0.65-3.44-1.93-4.44s-3.12-1.45-5.48-1.45h-5.3zm-105.44 1.4l-0.92 3.08-2.06 0.9v1.93h1.96v7.59c0 1.48 0.36 2.69 1.15 3.52 0.79 0.84 1.96 1.23 3.39 1.23 0.38 0 0.8-0.04 1.25-0.12h0.01c0.47-0.08 0.84-0.17 1.15-0.31l0.32-0.16v-2.68l-0.72 0.21c-0.16 0.04-0.41 0.1-0.73 0.15h-0.01c0 0.01 0 0.01-0.01 0.01-0.31 0.04-0.63 0.06-0.97 0.06-0.56 0-0.91-0.15-1.19-0.47-0.28-0.31-0.44-0.79-0.44-1.53v-7.5h3.97v-2.73h-3.97v-3.18h-2.18zm89 0l-0.92 3.08-2.06 0.9v1.93h1.96v7.59c0 1.48 0.36 2.69 1.15 3.52 0.79 0.84 1.96 1.23 3.39 1.23 0.38 0 0.8-0.04 1.25-0.12h0.01c0.47-0.08 0.84-0.17 1.15-0.31l0.32-0.16v-2.68l-0.72 0.21c-0.16 0.04-0.41 0.1-0.73 0.15h-0.01c0 0.01 0 0.01-0.01 0.01-0.31 0.04-0.63 0.06-0.97 0.06-0.56 0-0.91-0.15-1.19-0.47-0.28-0.31-0.44-0.79-0.44-1.53v-7.5h3.97v-2.73h-3.97v-3.18h-2.18zm62.2 0l-0.92 3.08-2.06 0.9v1.93h1.96v7.59c0 1.48 0.36 2.69 1.15 3.52 0.79 0.84 1.96 1.23 3.38 1.23 0.39 0 0.81-0.04 1.26-0.12h0.02c0.46-0.08 0.83-0.17 1.14-0.31l0.32-0.16v-2.68l-0.72 0.21c-0.16 0.04-0.41 0.1-0.73 0.15h-0.01c-0.31 0.05-0.64 0.07-0.97 0.07-0.57 0-0.91-0.15-1.2-0.47-0.28-0.31-0.45-0.79-0.45-1.53v-7.5h3.98v-2.73h-3.98v-3.18h-2.17zm120.7 0l-0.92 3.08-2.06 0.9v1.93h1.96v7.59c0 1.48 0.36 2.69 1.15 3.52 0.79 0.84 1.96 1.23 3.39 1.23 0.38 0 0.8-0.04 1.25-0.12h0.02c0.46-0.08 0.83-0.17 1.14-0.31l0.32-0.16v-2.68l-0.72 0.21c-0.16 0.04-0.41 0.1-0.73 0.15h-0.01c0 0.01 0 0.01-0.01 0.01-0.31 0.04-0.63 0.06-0.97 0.06-0.56 0-0.9-0.15-1.19-0.47-0.28-0.31-0.44-0.79-0.44-1.53v-7.5h3.97v-2.73h-3.97v-3.18h-2.18zm-163.21 1.56h1.81c1.61 0 2.73 0.3 3.37 0.77 0.64 0.49 0.96 1.17 0.96 2.26 0 1.22-0.35 1.97-1.03 2.47-0.68 0.49-1.94 0.8-3.76 0.8h-1.35v-6.3zm-153.5 0.02h2.2c1.51 0 2.54 0.28 3.09 0.69s0.85 1.07 0.85 2.17c0 1.08-0.29 1.78-0.85 2.26-0.55 0.46-1.51 0.75-2.94 0.75h-2.35v-5.87zm19.7 1.35c-1.97 0-3.63 0.73-4.82 2.15-1.18 1.42-1.75 3.32-1.75 5.62 0 2.29 0.62 4.17 1.9 5.52 1.29 1.35 3.07 2.03 5.21 2.03 0.95 0 1.77-0.08 2.48-0.23 0.7-0.14 1.43-0.38 2.19-0.71l0.34-0.14v-3.07l-0.78 0.33c-1.38 0.59-2.76 0.88-4.16 0.88-1.29 0-2.19-0.36-2.85-1.07-0.55-0.6-0.86-1.53-0.97-2.72h9.34v-1.87c0-1.95-0.54-3.6-1.64-4.83-1.1-1.26-2.65-1.89-4.49-1.89zm14.92 0c-1.66 0-3.03 0.34-4.06 1.08-1.03 0.73-1.59 1.82-1.59 3.09 0 0.7 0.14 1.34 0.46 1.89v0.01c0.32 0.53 0.78 0.99 1.37 1.39l0.01 0.01c0.61 0.39 1.54 0.81 2.83 1.29 1.32 0.5 2.19 0.96 2.54 1.25v0.01h0.01c0.36 0.29 0.49 0.56 0.49 0.93 0 0.55-0.17 0.84-0.6 1.1-0.46 0.26-1.19 0.43-2.22 0.43-0.65 0-1.33-0.08-2.05-0.26-0.71-0.19-1.37-0.43-1.99-0.75l-0.82-0.41v3.16l0.29 0.16c1.14 0.65 2.65 0.94 4.52 0.94 1.79 0 3.25-0.36 4.33-1.15s1.66-1.99 1.66-3.4c0-1.02-0.35-1.94-1.02-2.65-0.69-0.72-1.84-1.32-3.5-1.92-1.17-0.44-1.97-0.78-2.32-0.98-0.37-0.21-0.61-0.41-0.73-0.58-0.11-0.15-0.17-0.34-0.17-0.61 0-0.37 0.11-0.56 0.48-0.8 0.36-0.22 1.01-0.37 1.94-0.37 1.02 0 2.19 0.26 3.52 0.8l0.51 0.21 1.18-2.71-0.52-0.22c-1.47-0.62-3-0.94-4.55-0.94zm59.63 0c-0.96 0-1.87 0.28-2.67 0.82-0.47 0.31-0.8 0.85-1.18 1.31l-0.18-1.88h-2.78v14.82h3.2v-7.91c0-1.23 0.34-2.2 1.03-3 0.71-0.8 1.47-1.16 2.43-1.16 0.38 0 0.84 0.06 1.38 0.18l0.59 0.13 0.45-3.05-0.52-0.1c-0.53-0.11-1.11-0.16-1.75-0.16zm28.12 0c-1.01 0-1.95 0.2-2.8 0.61-0.53 0.26-0.86 0.71-1.25 1.1l-0.26-1.46h-2.72v14.82h3.19v-7.75c0-1.71 0.34-2.86 0.87-3.47 0.54-0.63 1.39-0.97 2.72-0.97 0.99 0 1.61 0.24 1.98 0.64 0.38 0.42 0.62 1.09 0.62 2.12v9.43h0.55 2.64v-9.5c0-1.84-0.44-3.28-1.42-4.22-0.97-0.93-2.38-1.35-4.12-1.35zm67.23 0c-0.96 0-1.87 0.28-2.68 0.82-0.46 0.31-0.79 0.85-1.17 1.31l-0.18-1.88h-2.78v14.82h3.2v-7.91c0-1.23 0.34-2.2 1.03-3 0.71-0.8 1.47-1.16 2.43-1.16 0.38 0 0.84 0.06 1.38 0.18l0.58 0.13 0.46-3.05-0.52-0.1c-0.53-0.11-1.11-0.16-1.75-0.16zm22.92 0c-1.01 0-1.95 0.2-2.8 0.61-0.53 0.26-0.86 0.71-1.25 1.1l-0.26-1.46h-2.72v14.82h3.19v-7.75c0-1.71 0.34-2.86 0.87-3.47 0.54-0.63 1.39-0.97 2.72-0.97 0.99 0 1.61 0.24 1.98 0.64 0.38 0.42 0.61 1.09 0.61 2.12v9.43h0.56 2.64v-9.5c0-1.84-0.44-3.28-1.42-4.22-0.97-0.93-2.38-1.35-4.12-1.35zm16.08 0c-1.97 0-3.62 0.73-4.82 2.15-1.18 1.42-1.75 3.32-1.75 5.62 0 2.29 0.62 4.17 1.9 5.52 1.29 1.35 3.07 2.03 5.21 2.03 0.95 0 1.77-0.08 2.47-0.23h0.01c0.7-0.14 1.43-0.38 2.19-0.71l0.34-0.14v-3.07l-0.78 0.33c-1.38 0.59-2.76 0.88-4.16 0.88-1.29 0-2.19-0.36-2.85-1.07-0.55-0.6-0.86-1.53-0.97-2.72h9.35v-1.87c0-1.95-0.55-3.6-1.65-4.83v-0.01c-1.1-1.25-2.65-1.88-4.49-1.88zm16.95 0c-0.96 0-1.87 0.28-2.68 0.82-0.46 0.31-0.79 0.85-1.17 1.31l-0.18-1.88h-2.78v14.82h3.19v-7.91c0-1.23 0.35-2.2 1.04-3 0.71-0.8 1.47-1.16 2.43-1.16 0.38 0 0.84 0.06 1.38 0.18l0.58 0.13 0.46-3.05-0.52-0.1c-0.53-0.11-1.11-0.16-1.75-0.16zm33.66 0c-2.1 0-3.84 0.68-5.06 2.06-1.23 1.36-1.82 3.26-1.82 5.58 0 1.51 0.27 2.86 0.83 4.02 0.55 1.16 1.37 2.08 2.41 2.71s2.24 0.95 3.55 0.95c2.1 0 3.85-0.69 5.08-2.06v-0.01c1.24-1.38 1.83-3.28 1.83-5.61 0-2.27-0.6-4.15-1.84-5.54-1.23-1.4-2.94-2.1-4.98-2.1zm61.2 0c-2.1 0-3.84 0.69-5.06 2.06-1.23 1.36-1.82 3.26-1.82 5.58 0 1.51 0.27 2.86 0.83 4.02s1.37 2.08 2.41 2.71 2.24 0.95 3.56 0.95c2.1 0 3.84-0.69 5.07-2.06v-0.01h0.01c1.23-1.38 1.83-3.28 1.83-5.61 0-2.27-0.61-4.15-1.84-5.54h-0.01c-1.23-1.4-2.94-2.1-4.98-2.1zm17.96 0c-1.01 0-1.95 0.2-2.8 0.61-0.53 0.26-0.86 0.71-1.25 1.1l-0.26-1.46h-2.72v14.82h3.19v-7.75c0-1.71 0.34-2.86 0.87-3.47 0.54-0.63 1.39-0.97 2.72-0.97 0.99 0 1.61 0.24 1.98 0.64 0.38 0.42 0.62 1.09 0.62 2.12v9.43h0.55 2.64v-9.5c0-1.84-0.44-3.28-1.42-4.22-0.97-0.93-2.38-1.35-4.12-1.35zm-298.37 0.02c-0.86 0-1.71 0.11-2.57 0.33-0.84 0.22-1.62 0.52-2.34 0.91l-0.43 0.24 1.04 2.61 0.54-0.26c1.39-0.68 2.61-1 3.63-1 0.93 0 1.48 0.23 1.8 0.59v0.01c0.34 0.36 0.56 1 0.56 2v0.3l-1.79 0.06c-2.27 0.07-4.02 0.47-5.26 1.28-1.25 0.81-1.92 2.1-1.92 3.63 0 1.4 0.44 2.59 1.34 3.4 0.89 0.81 2.12 1.2 3.57 1.2 1.08 0 2-0.16 2.77-0.5 0.55-0.25 1.05-0.81 1.55-1.31l0.33 1.56h0.45 2.1v-9.91c0-1.69-0.42-3.04-1.37-3.9-0.92-0.86-2.28-1.24-4-1.24zm45.2 0c-0.86 0-1.71 0.11-2.56 0.33h-0.01c-0.84 0.22-1.62 0.52-2.33 0.91l-0.44 0.24 1.04 2.61 0.54-0.26c1.39-0.68 2.61-1 3.64-1 0.92 0 1.47 0.23 1.79 0.59v0.01c0.34 0.36 0.56 1 0.56 2v0.3l-1.79 0.06c-2.27 0.07-4.02 0.47-5.26 1.28-1.25 0.81-1.91 2.1-1.91 3.63 0 1.4 0.43 2.59 1.33 3.4s2.12 1.2 3.57 1.2c1.08 0 2-0.16 2.77-0.5 0.55-0.25 1.05-0.8 1.55-1.31l0.33 1.56h0.46 2.09v-9.91c0-1.69-0.43-3.04-1.37-3.9-0.92-0.86-2.29-1.24-4-1.24zm67.45 0c-0.86 0-1.71 0.11-2.57 0.33-0.84 0.22-1.62 0.52-2.34 0.91l-0.43 0.24 1.04 2.61 0.54-0.26c1.39-0.68 2.61-1 3.63-1 0.93 0 1.48 0.23 1.8 0.59l0.01 0.01c0.33 0.36 0.55 1 0.55 2v0.3l-1.79 0.06c-2.27 0.07-4.02 0.47-5.26 1.28-1.25 0.81-1.92 2.1-1.92 3.63 0 1.4 0.44 2.59 1.34 3.4 0.89 0.81 2.12 1.2 3.58 1.2 1.07 0 1.99-0.16 2.76-0.5 0.55-0.25 1.04-0.8 1.55-1.31l0.33 1.56h0.45 2.1v-9.91c0-1.69-0.42-3.04-1.36-3.9-0.93-0.86-2.29-1.24-4.01-1.24zm-102.66 0.23v9.52c0 1.83 0.44 3.27 1.41 4.2v0.01c0.97 0.92 2.38 1.34 4.14 1.34 1.03 0 1.98-0.2 2.81-0.6 0.52-0.24 0.85-0.69 1.24-1.08l0.23 1.43h2.75v-14.82h-3.19v7.76c0 1.7-0.34 2.85-0.87 3.47-0.53 0.63-1.38 0.98-2.71 0.98-0.99 0-1.6-0.24-1.98-0.65s-0.61-1.08-0.61-2.12v-9.44h-0.56-2.66zm228.1 0v9.52c0 1.83 0.44 3.27 1.41 4.2v0.01c0.97 0.92 2.38 1.34 4.14 1.34 1.03 0 1.98-0.2 2.81-0.6 0.52-0.24 0.85-0.69 1.24-1.08l0.23 1.43h2.75v-14.82h-3.19v7.76c0 1.7-0.34 2.85-0.87 3.47-0.53 0.63-1.38 0.98-2.71 0.98-0.99 0-1.6-0.24-1.98-0.65s-0.61-1.08-0.61-2.12v-9.44h-0.56-2.66zm28.1 0v14.82h3.2v-0.56-14.26h-3.2zm-306.52 2.6c0.97 0 1.6 0.28 2.07 0.85l0.01 0.01c0.37 0.44 0.49 1.23 0.58 2.07h-5.65c0.16-0.79 0.35-1.57 0.77-2.03v-0.01c0.55-0.6 1.25-0.89 2.22-0.89zm208.91 0c0.96 0 1.59 0.28 2.07 0.85v0.01c0.37 0.44 0.49 1.23 0.58 2.07h-5.65c0.16-0.79 0.35-1.57 0.77-2.03v-0.01c0.56-0.6 1.25-0.89 2.23-0.89zm50.57 0.03c1.25 0 2.08 0.37 2.67 1.14v0.01c0.6 0.76 0.94 1.95 0.94 3.62 0 1.68-0.34 2.89-0.94 3.66v0.01c-0.59 0.77-1.41 1.14-2.65 1.14-1.23 0-2.04-0.38-2.64-1.15-0.59-0.78-0.93-1.99-0.93-3.66 0-1.7 0.33-2.9 0.92-3.65 0.58-0.75 1.39-1.12 2.63-1.12zm61.2 0c1.25 0 2.08 0.37 2.67 1.14v0.01c0.6 0.76 0.95 1.95 0.95 3.62 0 1.68-0.35 2.89-0.95 3.66v0.01c-0.59 0.77-1.41 1.14-2.65 1.14-1.23 0-2.04-0.38-2.64-1.15-0.59-0.78-0.93-1.99-0.93-3.66 0-1.7 0.34-2.9 0.92-3.65s1.39-1.12 2.63-1.12zm-278.17 5.47v0.66c0 1.16-0.32 1.97-0.94 2.57-0.62 0.59-1.46 0.9-2.65 0.9-0.73 0-1.22-0.17-1.55-0.45-0.31-0.28-0.48-0.65-0.48-1.29 0-0.81 0.25-1.28 0.82-1.63 0.59-0.37 1.7-0.64 3.3-0.69l1.5-0.07zm45.2 0v0.66c0 1.16-0.32 1.97-0.94 2.57-0.62 0.59-1.46 0.9-2.65 0.9-0.73 0-1.22-0.17-1.55-0.45-0.31-0.28-0.48-0.65-0.48-1.29 0-0.81 0.25-1.28 0.82-1.63 0.59-0.37 1.7-0.64 3.3-0.69l1.5-0.07zm67.45 0v0.66c0 1.16-0.32 1.97-0.94 2.57-0.62 0.59-1.46 0.9-2.65 0.9-0.73 0-1.22-0.17-1.55-0.45-0.31-0.28-0.48-0.65-0.48-1.29 0-0.81 0.25-1.28 0.82-1.63 0.59-0.37 1.7-0.64 3.3-0.69l1.5-0.07z"
     id="o3"
     class="outline" /><path
     stroke-linecap="round"
     stroke-linejoin="round"
     stroke-width="5"
     stroke="#3a3c99"
     fill="none"
     d="m187.04 215.86l0.05 113.64 0.04 113.65h38.24l0.05-94.53 0.05-94.52h573.26v259.61h-234.84c-129.16 0-266.79 0.06-305.84 0.13l-71.01 0.13 0.05 19.04 0.05 19.03 324.91 0.05 324.91 0.05v-336.27l-324.96-0.01h-324.96zm250.81 110.89v7.07h-0.22c-0.12 0-0.42 0.01-0.67 0.03-0.24 0.01-0.66 0.04-0.92 0.07-0.26 0.02-0.64 0.07-0.86 0.11-0.21 0.03-0.53 0.08-0.69 0.11-0.17 0.04-0.49 0.11-0.71 0.16s-0.6 0.15-0.84 0.22-0.61 0.19-0.82 0.26c-0.22 0.07-0.55 0.19-0.74 0.27s-0.47 0.19-0.61 0.26c-0.15 0.06-0.4 0.18-0.56 0.25-0.17 0.08-0.46 0.23-0.67 0.34-0.2 0.11-0.55 0.31-0.77 0.44-0.23 0.14-0.6 0.37-0.82 0.52s-0.56 0.4-0.76 0.55c-0.21 0.15-0.48 0.37-0.62 0.48-0.13 0.12-0.38 0.33-0.55 0.49-0.17 0.15-0.49 0.45-0.71 0.67s-0.54 0.56-0.72 0.76c-0.17 0.21-0.4 0.48-0.51 0.61-0.1 0.13-0.29 0.36-0.4 0.52-0.12 0.16-0.34 0.46-0.49 0.68s-0.36 0.55-0.47 0.74c-0.11 0.18-0.3 0.51-0.42 0.73s-0.3 0.56-0.39 0.76c-0.1 0.2-0.24 0.51-0.32 0.69-0.08 0.19-0.19 0.46-0.25 0.61s-0.17 0.47-0.25 0.71c-0.09 0.25-0.21 0.63-0.27 0.86-0.07 0.23-0.16 0.61-0.21 0.83-0.06 0.23-0.13 0.56-0.16 0.74s-0.08 0.51-0.12 0.73c-0.03 0.23-0.07 0.58-0.09 0.8-0.02 0.21-0.04 0.44-0.05 0.5-0.01 0.07-0.02 5.32-0.03 11.67l-0.02 11.55-0.04 0.32c-0.02 0.17-0.07 0.48-0.1 0.68s-0.11 0.55-0.16 0.78c-0.06 0.23-0.16 0.58-0.23 0.79s-0.18 0.49-0.23 0.62c-0.06 0.14-0.18 0.41-0.27 0.61-0.1 0.19-0.25 0.48-0.33 0.63-0.09 0.16-0.25 0.42-0.36 0.59-0.11 0.16-0.3 0.42-0.41 0.57-0.11 0.16-0.31 0.4-0.44 0.55s-0.37 0.41-0.53 0.57-0.42 0.39-0.57 0.52c-0.14 0.13-0.4 0.34-0.57 0.47s-0.43 0.31-0.58 0.41c-0.15 0.09-0.39 0.24-0.54 0.33-0.15 0.08-0.38 0.2-0.51 0.27-0.14 0.07-0.39 0.18-0.57 0.26s-0.42 0.17-0.54 0.21c-0.12 0.05-0.33 0.12-0.47 0.16-0.14 0.05-0.4 0.12-0.58 0.16-0.17 0.05-0.47 0.11-0.65 0.15-0.18 0.03-0.5 0.08-0.72 0.1-0.22 0.03-0.57 0.05-0.8 0.06l-0.4 0.02v-7.08h-21.23v21.23h21.23v-7.08h0.22c0.12 0 0.42-0.01 0.67-0.03 0.26-0.01 0.67-0.04 0.92-0.07 0.26-0.02 0.64-0.07 0.85-0.1 0.22-0.04 0.58-0.1 0.8-0.14 0.23-0.05 0.59-0.13 0.79-0.18 0.21-0.05 0.51-0.13 0.68-0.18 0.16-0.05 0.5-0.16 0.76-0.25 0.26-0.08 0.65-0.23 0.86-0.31 0.21-0.09 0.55-0.23 0.76-0.32 0.2-0.09 0.53-0.26 0.73-0.36s0.53-0.28 0.72-0.39c0.2-0.11 0.47-0.28 0.61-0.37 0.15-0.09 0.41-0.26 0.59-0.39 0.19-0.12 0.46-0.32 0.62-0.43 0.15-0.12 0.39-0.3 0.52-0.41 0.13-0.1 0.4-0.33 0.6-0.51 0.2-0.17 0.53-0.49 0.73-0.69 0.21-0.2 0.49-0.49 0.63-0.64 0.14-0.16 0.38-0.44 0.54-0.63s0.41-0.51 0.57-0.72c0.15-0.21 0.39-0.53 0.52-0.73 0.13-0.19 0.34-0.53 0.48-0.76s0.34-0.58 0.44-0.78c0.11-0.2 0.27-0.5 0.34-0.66 0.08-0.16 0.19-0.42 0.26-0.56 0.06-0.15 0.18-0.42 0.25-0.62 0.08-0.19 0.2-0.52 0.27-0.73 0.08-0.22 0.19-0.59 0.26-0.83s0.17-0.62 0.23-0.84c0.05-0.23 0.13-0.61 0.18-0.85 0.04-0.24 0.1-0.6 0.12-0.8 0.03-0.19 0.07-0.51 0.09-0.71 0.02-0.21 0.04-0.57 0.06-0.82 0.01-0.29 0.02-4.34 0.02-11.46 0-7.21 0.01-11.14 0.02-11.36 0.02-0.19 0.04-0.47 0.06-0.62 0.02-0.16 0.06-0.4 0.09-0.55 0.02-0.14 0.07-0.38 0.1-0.52 0.04-0.14 0.11-0.42 0.17-0.62 0.06-0.21 0.15-0.48 0.2-0.61s0.14-0.37 0.21-0.53 0.2-0.45 0.3-0.63c0.09-0.19 0.26-0.49 0.36-0.67 0.11-0.18 0.29-0.45 0.39-0.6 0.11-0.15 0.31-0.42 0.44-0.58 0.14-0.17 0.37-0.44 0.51-0.59s0.37-0.38 0.51-0.51c0.14-0.14 0.37-0.34 0.51-0.45 0.13-0.11 0.4-0.32 0.6-0.46s0.51-0.35 0.69-0.46 0.53-0.29 0.77-0.41c0.25-0.12 0.58-0.27 0.73-0.34 0.16-0.06 0.44-0.16 0.63-0.22 0.19-0.07 0.53-0.17 0.77-0.22 0.23-0.06 0.57-0.13 0.76-0.17 0.19-0.03 0.49-0.07 0.68-0.09 0.18-0.02 0.5-0.04 0.72-0.05l0.4-0.02v7.09h21.23v-21.23h-10.62-10.61zm-169.77 3.74l-5.63 63h18l2-22.63h2.38l0.06 0.13h-0.06l10.75 22.62h20.87l-0.06-0.12h0.06l-11.5-24.13c10-3 15.25-10.75 15.25-20.37 0-9.13-7.37-18.5-17.75-18.5h-16.37-5.5-12.5zm65.84 0l-1.21 13.5h-0.04l-4.38 49.5h18l2-22.63h11.5c17.13 0 26.25-9.5 26.25-22 0-9-7.37-18.37-17.75-18.37h-16.37-5.5-12.5zm175.85 0l-1.25 13.5h18l-4.38 49.5h18 0.13l4.37-49.5h17.88l1.25-13.5h-18-18-18zm64.1 0l-1.12 13.5-4.38 49.5h18 27.13l1.25-13.5h-27.13l1-11.25h17.75l1.25-13.5h-17.87l1-11.25h26.87l1.25-13.5h-26.87-18.13zm72.34 0l-24.75 63h19.12l4-11.13h19.38l2 11.13h18.75l-13.5-63h-8.25-8.63-8.12zm54.19 0l-5.62 63h18l3.75-41.25 4.5 41.25h13.5l11.5-41.13-3.63 41.13h18l5.63-63h-13.88-4.12-4.63l-11.12 39.87-3.88-39.87h-9.87-4.38-13.75zm-255.47 3.33h3.53 3.54v7.08h-7.07v-7.08zm-94.14 10.17h11.63c3.12 0 5.75 3.25 5.75 6-0.13 2.62-2.38 7.37-7.38 7.37h-11.25l1.25-13.37zm-54.34 0.12c3.13 0 5.75 3.25 5.75 6s-2.25 7.5-7.25 7.5h-11.25l1.25-13.37h11.5v-0.13zm360.88 2.25l4.13 22.5h-12.13l8-22.5zm-261.94 37h3.53 3.54v7.08h-7.07v-7.08zm228.63 21.95v20.57h3.19v-0.56-20.01h-3.19zm37.66 0.66c-0.47 0-0.92 0.17-1.26 0.49-0.38 0.36-0.53 0.88-0.53 1.44s0.15 1.08 0.52 1.45l0.01 0.01c0.33 0.32 0.79 0.49 1.26 0.49 0.46 0 0.91-0.17 1.24-0.48l0.01-0.01c0.38-0.37 0.53-0.89 0.53-1.46 0-0.56-0.15-1.09-0.54-1.44-0.33-0.32-0.78-0.49-1.24-0.49zm-64.65 0.25c-1.83 0-3.37 0.44-4.55 1.37s-1.8 2.25-1.8 3.8c0 1.44 0.41 2.69 1.23 3.63 0.83 0.95 2.13 1.7 3.88 2.32 1.2 0.43 2.09 0.81 2.62 1.12h0.01c0.54 0.32 0.89 0.64 1.07 0.94l0.01 0.01c0.18 0.29 0.29 0.69 0.29 1.25 0 0.81-0.26 1.35-0.85 1.8-0.57 0.43-1.52 0.69-2.86 0.69-0.83 0-1.66-0.09-2.51-0.27-0.85-0.17-1.63-0.41-2.35-0.72l-0.77-0.32v3.24l0.31 0.16c1.29 0.61 3.03 0.89 5.24 0.89 2.09 0 3.81-0.47 5.1-1.47s1.96-2.46 1.96-4.2c0-1.36-0.41-2.54-1.23-3.43-0.83-0.91-2.22-1.65-4.17-2.35-1.13-0.4-1.95-0.77-2.45-1.07-0.49-0.3-0.81-0.62-0.98-0.91-0.17-0.3-0.28-0.72-0.28-1.28 0-0.72 0.23-1.18 0.73-1.57 0.51-0.38 1.26-0.61 2.3-0.61 1.34 0 2.73 0.3 4.18 0.91l0.55 0.23 1.04-2.9-0.48-0.21c-1.6-0.7-3.36-1.05-5.24-1.05zm-266.4 0.26v19.4h3.25v-7.6h2.93l4.42 7.6h2.84l0.48-0.85-4.65-7.7c2.19-0.98 3.44-2.75 3.44-5.13 0-1.84-0.61-3.33-1.82-4.31-1.22-0.98-3-1.41-5.31-1.41h-5.58zm153.5 0v19.4h3.25v-7.19h1.59c2.43 0 4.37-0.51 5.76-1.61 1.4-1.1 2.11-2.74 2.11-4.71 0-1.9-0.65-3.44-1.93-4.44s-3.12-1.45-5.48-1.45h-5.3zm-105.44 1.4l-0.92 3.08-2.06 0.9v1.93h1.96v7.59c0 1.48 0.36 2.69 1.15 3.52 0.79 0.84 1.96 1.23 3.39 1.23 0.38 0 0.8-0.04 1.25-0.12h0.01c0.47-0.08 0.84-0.17 1.15-0.31l0.32-0.16v-2.68l-0.72 0.21c-0.16 0.04-0.41 0.1-0.73 0.15h-0.01c0 0.01 0 0.01-0.01 0.01-0.31 0.04-0.63 0.06-0.97 0.06-0.56 0-0.91-0.15-1.19-0.47-0.28-0.31-0.44-0.79-0.44-1.53v-7.5h3.97v-2.73h-3.97v-3.18h-2.18zm89 0l-0.92 3.08-2.06 0.9v1.93h1.96v7.59c0 1.48 0.36 2.69 1.15 3.52 0.79 0.84 1.96 1.23 3.39 1.23 0.38 0 0.8-0.04 1.25-0.12h0.01c0.47-0.08 0.84-0.17 1.15-0.31l0.32-0.16v-2.68l-0.72 0.21c-0.16 0.04-0.41 0.1-0.73 0.15h-0.01c0 0.01 0 0.01-0.01 0.01-0.31 0.04-0.63 0.06-0.97 0.06-0.56 0-0.91-0.15-1.19-0.47-0.28-0.31-0.44-0.79-0.44-1.53v-7.5h3.97v-2.73h-3.97v-3.18h-2.18zm62.2 0l-0.92 3.08-2.06 0.9v1.93h1.96v7.59c0 1.48 0.36 2.69 1.15 3.52 0.79 0.84 1.96 1.23 3.38 1.23 0.39 0 0.81-0.04 1.26-0.12h0.02c0.46-0.08 0.83-0.17 1.14-0.31l0.32-0.16v-2.68l-0.72 0.21c-0.16 0.04-0.41 0.1-0.73 0.15h-0.01c-0.31 0.05-0.64 0.07-0.97 0.07-0.57 0-0.91-0.15-1.2-0.47-0.28-0.31-0.45-0.79-0.45-1.53v-7.5h3.98v-2.73h-3.98v-3.18h-2.17zm120.7 0l-0.92 3.08-2.06 0.9v1.93h1.96v7.59c0 1.48 0.36 2.69 1.15 3.52 0.79 0.84 1.96 1.23 3.39 1.23 0.38 0 0.8-0.04 1.25-0.12h0.02c0.46-0.08 0.83-0.17 1.14-0.31l0.32-0.16v-2.68l-0.72 0.21c-0.16 0.04-0.41 0.1-0.73 0.15h-0.01c0 0.01 0 0.01-0.01 0.01-0.31 0.04-0.63 0.06-0.97 0.06-0.56 0-0.9-0.15-1.19-0.47-0.28-0.31-0.44-0.79-0.44-1.53v-7.5h3.97v-2.73h-3.97v-3.18h-2.18zm-163.21 1.56h1.81c1.61 0 2.73 0.3 3.37 0.77 0.64 0.49 0.96 1.17 0.96 2.26 0 1.22-0.35 1.97-1.03 2.47-0.68 0.49-1.94 0.8-3.76 0.8h-1.35v-6.3zm-153.5 0.02h2.2c1.51 0 2.54 0.28 3.09 0.69s0.85 1.07 0.85 2.17c0 1.08-0.29 1.78-0.85 2.26-0.55 0.46-1.51 0.75-2.94 0.75h-2.35v-5.87zm19.7 1.35c-1.97 0-3.63 0.73-4.82 2.15-1.18 1.42-1.75 3.32-1.75 5.62 0 2.29 0.62 4.17 1.9 5.52 1.29 1.35 3.07 2.03 5.21 2.03 0.95 0 1.77-0.08 2.48-0.23 0.7-0.14 1.43-0.38 2.19-0.71l0.34-0.14v-3.07l-0.78 0.33c-1.38 0.59-2.76 0.88-4.16 0.88-1.29 0-2.19-0.36-2.85-1.07-0.55-0.6-0.86-1.53-0.97-2.72h9.34v-1.87c0-1.95-0.54-3.6-1.64-4.83-1.1-1.26-2.65-1.89-4.49-1.89zm14.92 0c-1.66 0-3.03 0.34-4.06 1.08-1.03 0.73-1.59 1.82-1.59 3.09 0 0.7 0.14 1.34 0.46 1.89v0.01c0.32 0.53 0.78 0.99 1.37 1.39l0.01 0.01c0.61 0.39 1.54 0.81 2.83 1.29 1.32 0.5 2.19 0.96 2.54 1.25v0.01h0.01c0.36 0.29 0.49 0.56 0.49 0.93 0 0.55-0.17 0.84-0.6 1.1-0.46 0.26-1.19 0.43-2.22 0.43-0.65 0-1.33-0.08-2.05-0.26-0.71-0.19-1.37-0.43-1.99-0.75l-0.82-0.41v3.16l0.29 0.16c1.14 0.65 2.65 0.94 4.52 0.94 1.79 0 3.25-0.36 4.33-1.15s1.66-1.99 1.66-3.4c0-1.02-0.35-1.94-1.02-2.65-0.69-0.72-1.84-1.32-3.5-1.92-1.17-0.44-1.97-0.78-2.32-0.98-0.37-0.21-0.61-0.41-0.73-0.58-0.11-0.15-0.17-0.34-0.17-0.61 0-0.37 0.11-0.56 0.48-0.8 0.36-0.22 1.01-0.37 1.94-0.37 1.02 0 2.19 0.26 3.52 0.8l0.51 0.21 1.18-2.71-0.52-0.22c-1.47-0.62-3-0.94-4.55-0.94zm59.63 0c-0.96 0-1.87 0.28-2.67 0.82-0.47 0.31-0.8 0.85-1.18 1.31l-0.18-1.88h-2.78v14.82h3.2v-7.91c0-1.23 0.34-2.2 1.03-3 0.71-0.8 1.47-1.16 2.43-1.16 0.38 0 0.84 0.06 1.38 0.18l0.59 0.13 0.45-3.05-0.52-0.1c-0.53-0.11-1.11-0.16-1.75-0.16zm28.12 0c-1.01 0-1.95 0.2-2.8 0.61-0.53 0.26-0.86 0.71-1.25 1.1l-0.26-1.46h-2.72v14.82h3.19v-7.75c0-1.71 0.34-2.86 0.87-3.47 0.54-0.63 1.39-0.97 2.72-0.97 0.99 0 1.61 0.24 1.98 0.64 0.38 0.42 0.62 1.09 0.62 2.12v9.43h0.55 2.64v-9.5c0-1.84-0.44-3.28-1.42-4.22-0.97-0.93-2.38-1.35-4.12-1.35zm67.23 0c-0.96 0-1.87 0.28-2.68 0.82-0.46 0.31-0.79 0.85-1.17 1.31l-0.18-1.88h-2.78v14.82h3.2v-7.91c0-1.23 0.34-2.2 1.03-3 0.71-0.8 1.47-1.16 2.43-1.16 0.38 0 0.84 0.06 1.38 0.18l0.58 0.13 0.46-3.05-0.52-0.1c-0.53-0.11-1.11-0.16-1.75-0.16zm22.92 0c-1.01 0-1.95 0.2-2.8 0.61-0.53 0.26-0.86 0.71-1.25 1.1l-0.26-1.46h-2.72v14.82h3.19v-7.75c0-1.71 0.34-2.86 0.87-3.47 0.54-0.63 1.39-0.97 2.72-0.97 0.99 0 1.61 0.24 1.98 0.64 0.38 0.42 0.61 1.09 0.61 2.12v9.43h0.56 2.64v-9.5c0-1.84-0.44-3.28-1.42-4.22-0.97-0.93-2.38-1.35-4.12-1.35zm16.08 0c-1.97 0-3.62 0.73-4.82 2.15-1.18 1.42-1.75 3.32-1.75 5.62 0 2.29 0.62 4.17 1.9 5.52 1.29 1.35 3.07 2.03 5.21 2.03 0.95 0 1.77-0.08 2.47-0.23h0.01c0.7-0.14 1.43-0.38 2.19-0.71l0.34-0.14v-3.07l-0.78 0.33c-1.38 0.59-2.76 0.88-4.16 0.88-1.29 0-2.19-0.36-2.85-1.07-0.55-0.6-0.86-1.53-0.97-2.72h9.35v-1.87c0-1.95-0.55-3.6-1.65-4.83v-0.01c-1.1-1.25-2.65-1.88-4.49-1.88zm16.95 0c-0.96 0-1.87 0.28-2.68 0.82-0.46 0.31-0.79 0.85-1.17 1.31l-0.18-1.88h-2.78v14.82h3.19v-7.91c0-1.23 0.35-2.2 1.04-3 0.71-0.8 1.47-1.16 2.43-1.16 0.38 0 0.84 0.06 1.38 0.18l0.58 0.13 0.46-3.05-0.52-0.1c-0.53-0.11-1.11-0.16-1.75-0.16zm33.66 0c-2.1 0-3.84 0.68-5.06 2.06-1.23 1.36-1.82 3.26-1.82 5.58 0 1.51 0.27 2.86 0.83 4.02 0.55 1.16 1.37 2.08 2.41 2.71s2.24 0.95 3.55 0.95c2.1 0 3.85-0.69 5.08-2.06v-0.01c1.24-1.38 1.83-3.28 1.83-5.61 0-2.27-0.6-4.15-1.84-5.54-1.23-1.4-2.94-2.1-4.98-2.1zm61.2 0c-2.1 0-3.84 0.69-5.06 2.06-1.23 1.36-1.82 3.26-1.82 5.58 0 1.51 0.27 2.86 0.83 4.02s1.37 2.08 2.41 2.71 2.24 0.95 3.56 0.95c2.1 0 3.84-0.69 5.07-2.06v-0.01h0.01c1.23-1.38 1.83-3.28 1.83-5.61 0-2.27-0.61-4.15-1.84-5.54h-0.01c-1.23-1.4-2.94-2.1-4.98-2.1zm17.96 0c-1.01 0-1.95 0.2-2.8 0.61-0.53 0.26-0.86 0.71-1.25 1.1l-0.26-1.46h-2.72v14.82h3.19v-7.75c0-1.71 0.34-2.86 0.87-3.47 0.54-0.63 1.39-0.97 2.72-0.97 0.99 0 1.61 0.24 1.98 0.64 0.38 0.42 0.62 1.09 0.62 2.12v9.43h0.55 2.64v-9.5c0-1.84-0.44-3.28-1.42-4.22-0.97-0.93-2.38-1.35-4.12-1.35zm-298.37 0.02c-0.86 0-1.71 0.11-2.57 0.33-0.84 0.22-1.62 0.52-2.34 0.91l-0.43 0.24 1.04 2.61 0.54-0.26c1.39-0.68 2.61-1 3.63-1 0.93 0 1.48 0.23 1.8 0.59v0.01c0.34 0.36 0.56 1 0.56 2v0.3l-1.79 0.06c-2.27 0.07-4.02 0.47-5.26 1.28-1.25 0.81-1.92 2.1-1.92 3.63 0 1.4 0.44 2.59 1.34 3.4 0.89 0.81 2.12 1.2 3.57 1.2 1.08 0 2-0.16 2.77-0.5 0.55-0.25 1.05-0.81 1.55-1.31l0.33 1.56h0.45 2.1v-9.91c0-1.69-0.42-3.04-1.37-3.9-0.92-0.86-2.28-1.24-4-1.24zm45.2 0c-0.86 0-1.71 0.11-2.56 0.33h-0.01c-0.84 0.22-1.62 0.52-2.33 0.91l-0.44 0.24 1.04 2.61 0.54-0.26c1.39-0.68 2.61-1 3.64-1 0.92 0 1.47 0.23 1.79 0.59v0.01c0.34 0.36 0.56 1 0.56 2v0.3l-1.79 0.06c-2.27 0.07-4.02 0.47-5.26 1.28-1.25 0.81-1.91 2.1-1.91 3.63 0 1.4 0.43 2.59 1.33 3.4s2.12 1.2 3.57 1.2c1.08 0 2-0.16 2.77-0.5 0.55-0.25 1.05-0.8 1.55-1.31l0.33 1.56h0.46 2.09v-9.91c0-1.69-0.43-3.04-1.37-3.9-0.92-0.86-2.29-1.24-4-1.24zm67.45 0c-0.86 0-1.71 0.11-2.57 0.33-0.84 0.22-1.62 0.52-2.34 0.91l-0.43 0.24 1.04 2.61 0.54-0.26c1.39-0.68 2.61-1 3.63-1 0.93 0 1.48 0.23 1.8 0.59l0.01 0.01c0.33 0.36 0.55 1 0.55 2v0.3l-1.79 0.06c-2.27 0.07-4.02 0.47-5.26 1.28-1.25 0.81-1.92 2.1-1.92 3.63 0 1.4 0.44 2.59 1.34 3.4 0.89 0.81 2.12 1.2 3.58 1.2 1.07 0 1.99-0.16 2.76-0.5 0.55-0.25 1.04-0.8 1.55-1.31l0.33 1.56h0.45 2.1v-9.91c0-1.69-0.42-3.04-1.36-3.9-0.93-0.86-2.29-1.24-4.01-1.24zm-102.66 0.23v9.52c0 1.83 0.44 3.27 1.41 4.2v0.01c0.97 0.92 2.38 1.34 4.14 1.34 1.03 0 1.98-0.2 2.81-0.6 0.52-0.24 0.85-0.69 1.24-1.08l0.23 1.43h2.75v-14.82h-3.19v7.76c0 1.7-0.34 2.85-0.87 3.47-0.53 0.63-1.38 0.98-2.71 0.98-0.99 0-1.6-0.24-1.98-0.65s-0.61-1.08-0.61-2.12v-9.44h-0.56-2.66zm228.1 0v9.52c0 1.83 0.44 3.27 1.41 4.2v0.01c0.97 0.92 2.38 1.34 4.14 1.34 1.03 0 1.98-0.2 2.81-0.6 0.52-0.24 0.85-0.69 1.24-1.08l0.23 1.43h2.75v-14.82h-3.19v7.76c0 1.7-0.34 2.85-0.87 3.47-0.53 0.63-1.38 0.98-2.71 0.98-0.99 0-1.6-0.24-1.98-0.65s-0.61-1.08-0.61-2.12v-9.44h-0.56-2.66zm28.1 0v14.82h3.2v-0.56-14.26h-3.2zm-306.52 2.6c0.97 0 1.6 0.28 2.07 0.85l0.01 0.01c0.37 0.44 0.49 1.23 0.58 2.07h-5.65c0.16-0.79 0.35-1.57 0.77-2.03v-0.01c0.55-0.6 1.25-0.89 2.22-0.89zm208.91 0c0.96 0 1.59 0.28 2.07 0.85v0.01c0.37 0.44 0.49 1.23 0.58 2.07h-5.65c0.16-0.79 0.35-1.57 0.77-2.03v-0.01c0.56-0.6 1.25-0.89 2.23-0.89zm50.57 0.03c1.25 0 2.08 0.37 2.67 1.14v0.01c0.6 0.76 0.94 1.95 0.94 3.62 0 1.68-0.34 2.89-0.94 3.66v0.01c-0.59 0.77-1.41 1.14-2.65 1.14-1.23 0-2.04-0.38-2.64-1.15-0.59-0.78-0.93-1.99-0.93-3.66 0-1.7 0.33-2.9 0.92-3.65 0.58-0.75 1.39-1.12 2.63-1.12zm61.2 0c1.25 0 2.08 0.37 2.67 1.14v0.01c0.6 0.76 0.95 1.95 0.95 3.62 0 1.68-0.35 2.89-0.95 3.66v0.01c-0.59 0.77-1.41 1.14-2.65 1.14-1.23 0-2.04-0.38-2.64-1.15-0.59-0.78-0.93-1.99-0.93-3.66 0-1.7 0.34-2.9 0.92-3.65s1.39-1.12 2.63-1.12zm-278.17 5.47v0.66c0 1.16-0.32 1.97-0.94 2.57-0.62 0.59-1.46 0.9-2.65 0.9-0.73 0-1.22-0.17-1.55-0.45-0.31-0.28-0.48-0.65-0.48-1.29 0-0.81 0.25-1.28 0.82-1.63 0.59-0.37 1.7-0.64 3.3-0.69l1.5-0.07zm45.2 0v0.66c0 1.16-0.32 1.97-0.94 2.57-0.62 0.59-1.46 0.9-2.65 0.9-0.73 0-1.22-0.17-1.55-0.45-0.31-0.28-0.48-0.65-0.48-1.29 0-0.81 0.25-1.28 0.82-1.63 0.59-0.37 1.7-0.64 3.3-0.69l1.5-0.07zm67.45 0v0.66c0 1.16-0.32 1.97-0.94 2.57-0.62 0.59-1.46 0.9-2.65 0.9-0.73 0-1.22-0.17-1.55-0.45-0.31-0.28-0.48-0.65-0.48-1.29 0-0.81 0.25-1.28 0.82-1.63 0.59-0.37 1.7-0.64 3.3-0.69l1.5-0.07z"
     id="o2"
     class="outline" /><path
     stroke-linecap="round"
     stroke-linejoin="round"
     stroke-width="5"
     stroke="#3a3c99"
     fill="none"
     d="m187.04 215.86l0.05 113.64 0.04 113.65h38.24l0.05-94.53 0.05-94.52h573.26v259.61h-234.84c-129.16 0-266.79 0.06-305.84 0.13l-71.01 0.13 0.05 19.04 0.05 19.03 324.91 0.05 324.91 0.05v-336.27l-324.96-0.01h-324.96zm250.81 110.89v7.07h-0.22c-0.12 0-0.42 0.01-0.67 0.03-0.24 0.01-0.66 0.04-0.92 0.07-0.26 0.02-0.64 0.07-0.86 0.11-0.21 0.03-0.53 0.08-0.69 0.11-0.17 0.04-0.49 0.11-0.71 0.16s-0.6 0.15-0.84 0.22-0.61 0.19-0.82 0.26c-0.22 0.07-0.55 0.19-0.74 0.27s-0.47 0.19-0.61 0.26c-0.15 0.06-0.4 0.18-0.56 0.25-0.17 0.08-0.46 0.23-0.67 0.34-0.2 0.11-0.55 0.31-0.77 0.44-0.23 0.14-0.6 0.37-0.82 0.52s-0.56 0.4-0.76 0.55c-0.21 0.15-0.48 0.37-0.62 0.48-0.13 0.12-0.38 0.33-0.55 0.49-0.17 0.15-0.49 0.45-0.71 0.67s-0.54 0.56-0.72 0.76c-0.17 0.21-0.4 0.48-0.51 0.61-0.1 0.13-0.29 0.36-0.4 0.52-0.12 0.16-0.34 0.46-0.49 0.68s-0.36 0.55-0.47 0.74c-0.11 0.18-0.3 0.51-0.42 0.73s-0.3 0.56-0.39 0.76c-0.1 0.2-0.24 0.51-0.32 0.69-0.08 0.19-0.19 0.46-0.25 0.61s-0.17 0.47-0.25 0.71c-0.09 0.25-0.21 0.63-0.27 0.86-0.07 0.23-0.16 0.61-0.21 0.83-0.06 0.23-0.13 0.56-0.16 0.74s-0.08 0.51-0.12 0.73c-0.03 0.23-0.07 0.58-0.09 0.8-0.02 0.21-0.04 0.44-0.05 0.5-0.01 0.07-0.02 5.32-0.03 11.67l-0.02 11.55-0.04 0.32c-0.02 0.17-0.07 0.48-0.1 0.68s-0.11 0.55-0.16 0.78c-0.06 0.23-0.16 0.58-0.23 0.79s-0.18 0.49-0.23 0.62c-0.06 0.14-0.18 0.41-0.27 0.61-0.1 0.19-0.25 0.48-0.33 0.63-0.09 0.16-0.25 0.42-0.36 0.59-0.11 0.16-0.3 0.42-0.41 0.57-0.11 0.16-0.31 0.4-0.44 0.55s-0.37 0.41-0.53 0.57-0.42 0.39-0.57 0.52c-0.14 0.13-0.4 0.34-0.57 0.47s-0.43 0.31-0.58 0.41c-0.15 0.09-0.39 0.24-0.54 0.33-0.15 0.08-0.38 0.2-0.51 0.27-0.14 0.07-0.39 0.18-0.57 0.26s-0.42 0.17-0.54 0.21c-0.12 0.05-0.33 0.12-0.47 0.16-0.14 0.05-0.4 0.12-0.58 0.16-0.17 0.05-0.47 0.11-0.65 0.15-0.18 0.03-0.5 0.08-0.72 0.1-0.22 0.03-0.57 0.05-0.8 0.06l-0.4 0.02v-7.08h-21.23v21.23h21.23v-7.08h0.22c0.12 0 0.42-0.01 0.67-0.03 0.26-0.01 0.67-0.04 0.92-0.07 0.26-0.02 0.64-0.07 0.85-0.1 0.22-0.04 0.58-0.1 0.8-0.14 0.23-0.05 0.59-0.13 0.79-0.18 0.21-0.05 0.51-0.13 0.68-0.18 0.16-0.05 0.5-0.16 0.76-0.25 0.26-0.08 0.65-0.23 0.86-0.31 0.21-0.09 0.55-0.23 0.76-0.32 0.2-0.09 0.53-0.26 0.73-0.36s0.53-0.28 0.72-0.39c0.2-0.11 0.47-0.28 0.61-0.37 0.15-0.09 0.41-0.26 0.59-0.39 0.19-0.12 0.46-0.32 0.62-0.43 0.15-0.12 0.39-0.3 0.52-0.41 0.13-0.1 0.4-0.33 0.6-0.51 0.2-0.17 0.53-0.49 0.73-0.69 0.21-0.2 0.49-0.49 0.63-0.64 0.14-0.16 0.38-0.44 0.54-0.63s0.41-0.51 0.57-0.72c0.15-0.21 0.39-0.53 0.52-0.73 0.13-0.19 0.34-0.53 0.48-0.76s0.34-0.58 0.44-0.78c0.11-0.2 0.27-0.5 0.34-0.66 0.08-0.16 0.19-0.42 0.26-0.56 0.06-0.15 0.18-0.42 0.25-0.62 0.08-0.19 0.2-0.52 0.27-0.73 0.08-0.22 0.19-0.59 0.26-0.83s0.17-0.62 0.23-0.84c0.05-0.23 0.13-0.61 0.18-0.85 0.04-0.24 0.1-0.6 0.12-0.8 0.03-0.19 0.07-0.51 0.09-0.71 0.02-0.21 0.04-0.57 0.06-0.82 0.01-0.29 0.02-4.34 0.02-11.46 0-7.21 0.01-11.14 0.02-11.36 0.02-0.19 0.04-0.47 0.06-0.62 0.02-0.16 0.06-0.4 0.09-0.55 0.02-0.14 0.07-0.38 0.1-0.52 0.04-0.14 0.11-0.42 0.17-0.62 0.06-0.21 0.15-0.48 0.2-0.61s0.14-0.37 0.21-0.53 0.2-0.45 0.3-0.63c0.09-0.19 0.26-0.49 0.36-0.67 0.11-0.18 0.29-0.45 0.39-0.6 0.11-0.15 0.31-0.42 0.44-0.58 0.14-0.17 0.37-0.44 0.51-0.59s0.37-0.38 0.51-0.51c0.14-0.14 0.37-0.34 0.51-0.45 0.13-0.11 0.4-0.32 0.6-0.46s0.51-0.35 0.69-0.46 0.53-0.29 0.77-0.41c0.25-0.12 0.58-0.27 0.73-0.34 0.16-0.06 0.44-0.16 0.63-0.22 0.19-0.07 0.53-0.17 0.77-0.22 0.23-0.06 0.57-0.13 0.76-0.17 0.19-0.03 0.49-0.07 0.68-0.09 0.18-0.02 0.5-0.04 0.72-0.05l0.4-0.02v7.09h21.23v-21.23h-10.62-10.61zm-169.77 3.74l-5.63 63h18l2-22.63h2.38l0.06 0.13h-0.06l10.75 22.62h20.87l-0.06-0.12h0.06l-11.5-24.13c10-3 15.25-10.75 15.25-20.37 0-9.13-7.37-18.5-17.75-18.5h-16.37-5.5-12.5zm65.84 0l-1.21 13.5h-0.04l-4.38 49.5h18l2-22.63h11.5c17.13 0 26.25-9.5 26.25-22 0-9-7.37-18.37-17.75-18.37h-16.37-5.5-12.5zm175.85 0l-1.25 13.5h18l-4.38 49.5h18 0.13l4.37-49.5h17.88l1.25-13.5h-18-18-18zm64.1 0l-1.12 13.5-4.38 49.5h18 27.13l1.25-13.5h-27.13l1-11.25h17.75l1.25-13.5h-17.87l1-11.25h26.87l1.25-13.5h-26.87-18.13zm72.34 0l-24.75 63h19.12l4-11.13h19.38l2 11.13h18.75l-13.5-63h-8.25-8.63-8.12zm54.19 0l-5.62 63h18l3.75-41.25 4.5 41.25h13.5l11.5-41.13-3.63 41.13h18l5.63-63h-13.88-4.12-4.63l-11.12 39.87-3.88-39.87h-9.87-4.38-13.75zm-255.47 3.33h3.53 3.54v7.08h-7.07v-7.08zm-94.14 10.17h11.63c3.12 0 5.75 3.25 5.75 6-0.13 2.62-2.38 7.37-7.38 7.37h-11.25l1.25-13.37zm-54.34 0.12c3.13 0 5.75 3.25 5.75 6s-2.25 7.5-7.25 7.5h-11.25l1.25-13.37h11.5v-0.13zm360.88 2.25l4.13 22.5h-12.13l8-22.5zm-261.94 37h3.53 3.54v7.08h-7.07v-7.08zm228.63 21.95v20.57h3.19v-0.56-20.01h-3.19zm37.66 0.66c-0.47 0-0.92 0.17-1.26 0.49-0.38 0.36-0.53 0.88-0.53 1.44s0.15 1.08 0.52 1.45l0.01 0.01c0.33 0.32 0.79 0.49 1.26 0.49 0.46 0 0.91-0.17 1.24-0.48l0.01-0.01c0.38-0.37 0.53-0.89 0.53-1.46 0-0.56-0.15-1.09-0.54-1.44-0.33-0.32-0.78-0.49-1.24-0.49zm-64.65 0.25c-1.83 0-3.37 0.44-4.55 1.37s-1.8 2.25-1.8 3.8c0 1.44 0.41 2.69 1.23 3.63 0.83 0.95 2.13 1.7 3.88 2.32 1.2 0.43 2.09 0.81 2.62 1.12h0.01c0.54 0.32 0.89 0.64 1.07 0.94l0.01 0.01c0.18 0.29 0.29 0.69 0.29 1.25 0 0.81-0.26 1.35-0.85 1.8-0.57 0.43-1.52 0.69-2.86 0.69-0.83 0-1.66-0.09-2.51-0.27-0.85-0.17-1.63-0.41-2.35-0.72l-0.77-0.32v3.24l0.31 0.16c1.29 0.61 3.03 0.89 5.24 0.89 2.09 0 3.81-0.47 5.1-1.47s1.96-2.46 1.96-4.2c0-1.36-0.41-2.54-1.23-3.43-0.83-0.91-2.22-1.65-4.17-2.35-1.13-0.4-1.95-0.77-2.45-1.07-0.49-0.3-0.81-0.62-0.98-0.91-0.17-0.3-0.28-0.72-0.28-1.28 0-0.72 0.23-1.18 0.73-1.57 0.51-0.38 1.26-0.61 2.3-0.61 1.34 0 2.73 0.3 4.18 0.91l0.55 0.23 1.04-2.9-0.48-0.21c-1.6-0.7-3.36-1.05-5.24-1.05zm-266.4 0.26v19.4h3.25v-7.6h2.93l4.42 7.6h2.84l0.48-0.85-4.65-7.7c2.19-0.98 3.44-2.75 3.44-5.13 0-1.84-0.61-3.33-1.82-4.31-1.22-0.98-3-1.41-5.31-1.41h-5.58zm153.5 0v19.4h3.25v-7.19h1.59c2.43 0 4.37-0.51 5.76-1.61 1.4-1.1 2.11-2.74 2.11-4.71 0-1.9-0.65-3.44-1.93-4.44s-3.12-1.45-5.48-1.45h-5.3zm-105.44 1.4l-0.92 3.08-2.06 0.9v1.93h1.96v7.59c0 1.48 0.36 2.69 1.15 3.52 0.79 0.84 1.96 1.23 3.39 1.23 0.38 0 0.8-0.04 1.25-0.12h0.01c0.47-0.08 0.84-0.17 1.15-0.31l0.32-0.16v-2.68l-0.72 0.21c-0.16 0.04-0.41 0.1-0.73 0.15h-0.01c0 0.01 0 0.01-0.01 0.01-0.31 0.04-0.63 0.06-0.97 0.06-0.56 0-0.91-0.15-1.19-0.47-0.28-0.31-0.44-0.79-0.44-1.53v-7.5h3.97v-2.73h-3.97v-3.18h-2.18zm89 0l-0.92 3.08-2.06 0.9v1.93h1.96v7.59c0 1.48 0.36 2.69 1.15 3.52 0.79 0.84 1.96 1.23 3.39 1.23 0.38 0 0.8-0.04 1.25-0.12h0.01c0.47-0.08 0.84-0.17 1.15-0.31l0.32-0.16v-2.68l-0.72 0.21c-0.16 0.04-0.41 0.1-0.73 0.15h-0.01c0 0.01 0 0.01-0.01 0.01-0.31 0.04-0.63 0.06-0.97 0.06-0.56 0-0.91-0.15-1.19-0.47-0.28-0.31-0.44-0.79-0.44-1.53v-7.5h3.97v-2.73h-3.97v-3.18h-2.18zm62.2 0l-0.92 3.08-2.06 0.9v1.93h1.96v7.59c0 1.48 0.36 2.69 1.15 3.52 0.79 0.84 1.96 1.23 3.38 1.23 0.39 0 0.81-0.04 1.26-0.12h0.02c0.46-0.08 0.83-0.17 1.14-0.31l0.32-0.16v-2.68l-0.72 0.21c-0.16 0.04-0.41 0.1-0.73 0.15h-0.01c-0.31 0.05-0.64 0.07-0.97 0.07-0.57 0-0.91-0.15-1.2-0.47-0.28-0.31-0.45-0.79-0.45-1.53v-7.5h3.98v-2.73h-3.98v-3.18h-2.17zm120.7 0l-0.92 3.08-2.06 0.9v1.93h1.96v7.59c0 1.48 0.36 2.69 1.15 3.52 0.79 0.84 1.96 1.23 3.39 1.23 0.38 0 0.8-0.04 1.25-0.12h0.02c0.46-0.08 0.83-0.17 1.14-0.31l0.32-0.16v-2.68l-0.72 0.21c-0.16 0.04-0.41 0.1-0.73 0.15h-0.01c0 0.01 0 0.01-0.01 0.01-0.31 0.04-0.63 0.06-0.97 0.06-0.56 0-0.9-0.15-1.19-0.47-0.28-0.31-0.44-0.79-0.44-1.53v-7.5h3.97v-2.73h-3.97v-3.18h-2.18zm-163.21 1.56h1.81c1.61 0 2.73 0.3 3.37 0.77 0.64 0.49 0.96 1.17 0.96 2.26 0 1.22-0.35 1.97-1.03 2.47-0.68 0.49-1.94 0.8-3.76 0.8h-1.35v-6.3zm-153.5 0.02h2.2c1.51 0 2.54 0.28 3.09 0.69s0.85 1.07 0.85 2.17c0 1.08-0.29 1.78-0.85 2.26-0.55 0.46-1.51 0.75-2.94 0.75h-2.35v-5.87zm19.7 1.35c-1.97 0-3.63 0.73-4.82 2.15-1.18 1.42-1.75 3.32-1.75 5.62 0 2.29 0.62 4.17 1.9 5.52 1.29 1.35 3.07 2.03 5.21 2.03 0.95 0 1.77-0.08 2.48-0.23 0.7-0.14 1.43-0.38 2.19-0.71l0.34-0.14v-3.07l-0.78 0.33c-1.38 0.59-2.76 0.88-4.16 0.88-1.29 0-2.19-0.36-2.85-1.07-0.55-0.6-0.86-1.53-0.97-2.72h9.34v-1.87c0-1.95-0.54-3.6-1.64-4.83-1.1-1.26-2.65-1.89-4.49-1.89zm14.92 0c-1.66 0-3.03 0.34-4.06 1.08-1.03 0.73-1.59 1.82-1.59 3.09 0 0.7 0.14 1.34 0.46 1.89v0.01c0.32 0.53 0.78 0.99 1.37 1.39l0.01 0.01c0.61 0.39 1.54 0.81 2.83 1.29 1.32 0.5 2.19 0.96 2.54 1.25v0.01h0.01c0.36 0.29 0.49 0.56 0.49 0.93 0 0.55-0.17 0.84-0.6 1.1-0.46 0.26-1.19 0.43-2.22 0.43-0.65 0-1.33-0.08-2.05-0.26-0.71-0.19-1.37-0.43-1.99-0.75l-0.82-0.41v3.16l0.29 0.16c1.14 0.65 2.65 0.94 4.52 0.94 1.79 0 3.25-0.36 4.33-1.15s1.66-1.99 1.66-3.4c0-1.02-0.35-1.94-1.02-2.65-0.69-0.72-1.84-1.32-3.5-1.92-1.17-0.44-1.97-0.78-2.32-0.98-0.37-0.21-0.61-0.41-0.73-0.58-0.11-0.15-0.17-0.34-0.17-0.61 0-0.37 0.11-0.56 0.48-0.8 0.36-0.22 1.01-0.37 1.94-0.37 1.02 0 2.19 0.26 3.52 0.8l0.51 0.21 1.18-2.71-0.52-0.22c-1.47-0.62-3-0.94-4.55-0.94zm59.63 0c-0.96 0-1.87 0.28-2.67 0.82-0.47 0.31-0.8 0.85-1.18 1.31l-0.18-1.88h-2.78v14.82h3.2v-7.91c0-1.23 0.34-2.2 1.03-3 0.71-0.8 1.47-1.16 2.43-1.16 0.38 0 0.84 0.06 1.38 0.18l0.59 0.13 0.45-3.05-0.52-0.1c-0.53-0.11-1.11-0.16-1.75-0.16zm28.12 0c-1.01 0-1.95 0.2-2.8 0.61-0.53 0.26-0.86 0.71-1.25 1.1l-0.26-1.46h-2.72v14.82h3.19v-7.75c0-1.71 0.34-2.86 0.87-3.47 0.54-0.63 1.39-0.97 2.72-0.97 0.99 0 1.61 0.24 1.98 0.64 0.38 0.42 0.62 1.09 0.62 2.12v9.43h0.55 2.64v-9.5c0-1.84-0.44-3.28-1.42-4.22-0.97-0.93-2.38-1.35-4.12-1.35zm67.23 0c-0.96 0-1.87 0.28-2.68 0.82-0.46 0.31-0.79 0.85-1.17 1.31l-0.18-1.88h-2.78v14.82h3.2v-7.91c0-1.23 0.34-2.2 1.03-3 0.71-0.8 1.47-1.16 2.43-1.16 0.38 0 0.84 0.06 1.38 0.18l0.58 0.13 0.46-3.05-0.52-0.1c-0.53-0.11-1.11-0.16-1.75-0.16zm22.92 0c-1.01 0-1.95 0.2-2.8 0.61-0.53 0.26-0.86 0.71-1.25 1.1l-0.26-1.46h-2.72v14.82h3.19v-7.75c0-1.71 0.34-2.86 0.87-3.47 0.54-0.63 1.39-0.97 2.72-0.97 0.99 0 1.61 0.24 1.98 0.64 0.38 0.42 0.61 1.09 0.61 2.12v9.43h0.56 2.64v-9.5c0-1.84-0.44-3.28-1.42-4.22-0.97-0.93-2.38-1.35-4.12-1.35zm16.08 0c-1.97 0-3.62 0.73-4.82 2.15-1.18 1.42-1.75 3.32-1.75 5.62 0 2.29 0.62 4.17 1.9 5.52 1.29 1.35 3.07 2.03 5.21 2.03 0.95 0 1.77-0.08 2.47-0.23h0.01c0.7-0.14 1.43-0.38 2.19-0.71l0.34-0.14v-3.07l-0.78 0.33c-1.38 0.59-2.76 0.88-4.16 0.88-1.29 0-2.19-0.36-2.85-1.07-0.55-0.6-0.86-1.53-0.97-2.72h9.35v-1.87c0-1.95-0.55-3.6-1.65-4.83v-0.01c-1.1-1.25-2.65-1.88-4.49-1.88zm16.95 0c-0.96 0-1.87 0.28-2.68 0.82-0.46 0.31-0.79 0.85-1.17 1.31l-0.18-1.88h-2.78v14.82h3.19v-7.91c0-1.23 0.35-2.2 1.04-3 0.71-0.8 1.47-1.16 2.43-1.16 0.38 0 0.84 0.06 1.38 0.18l0.58 0.13 0.46-3.05-0.52-0.1c-0.53-0.11-1.11-0.16-1.75-0.16zm33.66 0c-2.1 0-3.84 0.68-5.06 2.06-1.23 1.36-1.82 3.26-1.82 5.58 0 1.51 0.27 2.86 0.83 4.02 0.55 1.16 1.37 2.08 2.41 2.71s2.24 0.95 3.55 0.95c2.1 0 3.85-0.69 5.08-2.06v-0.01c1.24-1.38 1.83-3.28 1.83-5.61 0-2.27-0.6-4.15-1.84-5.54-1.23-1.4-2.94-2.1-4.98-2.1zm61.2 0c-2.1 0-3.84 0.69-5.06 2.06-1.23 1.36-1.82 3.26-1.82 5.58 0 1.51 0.27 2.86 0.83 4.02s1.37 2.08 2.41 2.71 2.24 0.95 3.56 0.95c2.1 0 3.84-0.69 5.07-2.06v-0.01h0.01c1.23-1.38 1.83-3.28 1.83-5.61 0-2.27-0.61-4.15-1.84-5.54h-0.01c-1.23-1.4-2.94-2.1-4.98-2.1zm17.96 0c-1.01 0-1.95 0.2-2.8 0.61-0.53 0.26-0.86 0.71-1.25 1.1l-0.26-1.46h-2.72v14.82h3.19v-7.75c0-1.71 0.34-2.86 0.87-3.47 0.54-0.63 1.39-0.97 2.72-0.97 0.99 0 1.61 0.24 1.98 0.64 0.38 0.42 0.62 1.09 0.62 2.12v9.43h0.55 2.64v-9.5c0-1.84-0.44-3.28-1.42-4.22-0.97-0.93-2.38-1.35-4.12-1.35zm-298.37 0.02c-0.86 0-1.71 0.11-2.57 0.33-0.84 0.22-1.62 0.52-2.34 0.91l-0.43 0.24 1.04 2.61 0.54-0.26c1.39-0.68 2.61-1 3.63-1 0.93 0 1.48 0.23 1.8 0.59v0.01c0.34 0.36 0.56 1 0.56 2v0.3l-1.79 0.06c-2.27 0.07-4.02 0.47-5.26 1.28-1.25 0.81-1.92 2.1-1.92 3.63 0 1.4 0.44 2.59 1.34 3.4 0.89 0.81 2.12 1.2 3.57 1.2 1.08 0 2-0.16 2.77-0.5 0.55-0.25 1.05-0.81 1.55-1.31l0.33 1.56h0.45 2.1v-9.91c0-1.69-0.42-3.04-1.37-3.9-0.92-0.86-2.28-1.24-4-1.24zm45.2 0c-0.86 0-1.71 0.11-2.56 0.33h-0.01c-0.84 0.22-1.62 0.52-2.33 0.91l-0.44 0.24 1.04 2.61 0.54-0.26c1.39-0.68 2.61-1 3.64-1 0.92 0 1.47 0.23 1.79 0.59v0.01c0.34 0.36 0.56 1 0.56 2v0.3l-1.79 0.06c-2.27 0.07-4.02 0.47-5.26 1.28-1.25 0.81-1.91 2.1-1.91 3.63 0 1.4 0.43 2.59 1.33 3.4s2.12 1.2 3.57 1.2c1.08 0 2-0.16 2.77-0.5 0.55-0.25 1.05-0.8 1.55-1.31l0.33 1.56h0.46 2.09v-9.91c0-1.69-0.43-3.04-1.37-3.9-0.92-0.86-2.29-1.24-4-1.24zm67.45 0c-0.86 0-1.71 0.11-2.57 0.33-0.84 0.22-1.62 0.52-2.34 0.91l-0.43 0.24 1.04 2.61 0.54-0.26c1.39-0.68 2.61-1 3.63-1 0.93 0 1.48 0.23 1.8 0.59l0.01 0.01c0.33 0.36 0.55 1 0.55 2v0.3l-1.79 0.06c-2.27 0.07-4.02 0.47-5.26 1.28-1.25 0.81-1.92 2.1-1.92 3.63 0 1.4 0.44 2.59 1.34 3.4 0.89 0.81 2.12 1.2 3.58 1.2 1.07 0 1.99-0.16 2.76-0.5 0.55-0.25 1.04-0.8 1.55-1.31l0.33 1.56h0.45 2.1v-9.91c0-1.69-0.42-3.04-1.36-3.9-0.93-0.86-2.29-1.24-4.01-1.24zm-102.66 0.23v9.52c0 1.83 0.44 3.27 1.41 4.2v0.01c0.97 0.92 2.38 1.34 4.14 1.34 1.03 0 1.98-0.2 2.81-0.6 0.52-0.24 0.85-0.69 1.24-1.08l0.23 1.43h2.75v-14.82h-3.19v7.76c0 1.7-0.34 2.85-0.87 3.47-0.53 0.63-1.38 0.98-2.71 0.98-0.99 0-1.6-0.24-1.98-0.65s-0.61-1.08-0.61-2.12v-9.44h-0.56-2.66zm228.1 0v9.52c0 1.83 0.44 3.27 1.41 4.2v0.01c0.97 0.92 2.38 1.34 4.14 1.34 1.03 0 1.98-0.2 2.81-0.6 0.52-0.24 0.85-0.69 1.24-1.08l0.23 1.43h2.75v-14.82h-3.19v7.76c0 1.7-0.34 2.85-0.87 3.47-0.53 0.63-1.38 0.98-2.71 0.98-0.99 0-1.6-0.24-1.98-0.65s-0.61-1.08-0.61-2.12v-9.44h-0.56-2.66zm28.1 0v14.82h3.2v-0.56-14.26h-3.2zm-306.52 2.6c0.97 0 1.6 0.28 2.07 0.85l0.01 0.01c0.37 0.44 0.49 1.23 0.58 2.07h-5.65c0.16-0.79 0.35-1.57 0.77-2.03v-0.01c0.55-0.6 1.25-0.89 2.22-0.89zm208.91 0c0.96 0 1.59 0.28 2.07 0.85v0.01c0.37 0.44 0.49 1.23 0.58 2.07h-5.65c0.16-0.79 0.35-1.57 0.77-2.03v-0.01c0.56-0.6 1.25-0.89 2.23-0.89zm50.57 0.03c1.25 0 2.08 0.37 2.67 1.14v0.01c0.6 0.76 0.94 1.95 0.94 3.62 0 1.68-0.34 2.89-0.94 3.66v0.01c-0.59 0.77-1.41 1.14-2.65 1.14-1.23 0-2.04-0.38-2.64-1.15-0.59-0.78-0.93-1.99-0.93-3.66 0-1.7 0.33-2.9 0.92-3.65 0.58-0.75 1.39-1.12 2.63-1.12zm61.2 0c1.25 0 2.08 0.37 2.67 1.14v0.01c0.6 0.76 0.95 1.95 0.95 3.62 0 1.68-0.35 2.89-0.95 3.66v0.01c-0.59 0.77-1.41 1.14-2.65 1.14-1.23 0-2.04-0.38-2.64-1.15-0.59-0.78-0.93-1.99-0.93-3.66 0-1.7 0.34-2.9 0.92-3.65s1.39-1.12 2.63-1.12zm-278.17 5.47v0.66c0 1.16-0.32 1.97-0.94 2.57-0.62 0.59-1.46 0.9-2.65 0.9-0.73 0-1.22-0.17-1.55-0.45-0.31-0.28-0.48-0.65-0.48-1.29 0-0.81 0.25-1.28 0.82-1.63 0.59-0.37 1.7-0.64 3.3-0.69l1.5-0.07zm45.2 0v0.66c0 1.16-0.32 1.97-0.94 2.57-0.62 0.59-1.46 0.9-2.65 0.9-0.73 0-1.22-0.17-1.55-0.45-0.31-0.28-0.48-0.65-0.48-1.29 0-0.81 0.25-1.28 0.82-1.63 0.59-0.37 1.7-0.64 3.3-0.69l1.5-0.07zm67.45 0v0.66c0 1.16-0.32 1.97-0.94 2.57-0.62 0.59-1.46 0.9-2.65 0.9-0.73 0-1.22-0.17-1.55-0.45-0.31-0.28-0.48-0.65-0.48-1.29 0-0.81 0.25-1.28 0.82-1.63 0.59-0.37 1.7-0.64 3.3-0.69l1.5-0.07z"
     id="o1"
     class="outline" /><g
     style="opacity:0"
     id="logo-fade"><g
       transform="translate(2.2105,-8.923)"
       id="logo-group"><g
         transform="matrix(3.6,0,0,3.6,152,24)"
         id="container-group"><path
           style="fill:#e53254"
           d="M 99.385,55.774 H 9.118 l 0.0139,31.567 0.0139,31.567 h 10.62 l 0.0139,-26.257 0.0139,-26.257 h 159.24 v 72.114 h -65.233 c -35.878,0 -74.109,0.0167 -84.957,0.0373 l -19.724,0.0367 0.0139,5.287 0.014456,5.2864 90.253,0.0139 90.253004,0.0139 v -93.408 z"
           id="container" /></g><path
         stroke-miterlimit="2"
         d="m 331.11,426.64 v 7.6 h -2.125 v -18.275 h 5.0125 q 3.3625,0 4.9625,1.2875 1.6125,1.2875 1.6125,3.875 0,3.625 -3.675,4.9 l 4.9625,8.2125 h -2.5125 l -4.425,-7.6 z m 0,-1.825 h 2.9125 q 2.25,0 3.3,-0.8875 1.05,-0.9 1.05,-2.6875 0,-1.8125 -1.075,-2.6125 -1.0625,-0.8 -3.425,-0.8 H 331.11 Z"
         style="font-variant-ligatures:none;fill:#5032e5;stroke:#5032e5;stroke-width:1.12;stroke-miterlimit:2"
         id="path702559" /><path
         stroke-miterlimit="2"
         d="m 351.91,434.49 q -3.0375,0 -4.8,-1.85 -1.75,-1.85 -1.75,-5.1375 0,-3.3125 1.625,-5.2625 1.6375,-1.95 4.3875,-1.95 2.575,0 4.075,1.7 1.5,1.6875 1.5,4.4625 v 1.3125 H 347.51 q 0.0625,2.4125 1.2125,3.6625 1.1625,1.25 3.2625,1.25 2.2125,0 4.375,-0.925 v 1.85 q -1.1,0.475 -2.0875,0.675 -0.975,0.2125 -2.3625,0.2125 z m -0.5625,-12.462 q -1.65,0 -2.6375,1.075 -0.975,1.075 -1.15,2.975 h 7.1625 q 0,-1.9625 -0.875,-3 -0.875,-1.05 -2.5,-1.05 z"
         style="font-variant-ligatures:none;fill:#6932cd;stroke:#6932cd;stroke-width:1.12;stroke-miterlimit:2"
         id="path702561" /><path
         stroke-miterlimit="2"
         d="m 370.91,430.5 q 0,1.9125 -1.425,2.95 -1.425,1.0375 -4,1.0375 -2.725,0 -4.25,-0.8625 V 431.7 q 0.9875,0.5 2.1125,0.7875 1.1375,0.2875 2.1875,0.2875 1.625,0 2.5,-0.5125 0.875,-0.525 0.875,-1.5875 0,-0.8 -0.7,-1.3625 -0.6875,-0.575 -2.7,-1.35 -1.9125,-0.7125 -2.725,-1.2375 -0.8,-0.5375 -1.2,-1.2125 -0.3875,-0.675 -0.3875,-1.6125 0,-1.675 1.3625,-2.6375 1.3625,-0.975 3.7375,-0.975 2.2125,0 4.325,0.9 l -0.7375,1.6875 q -2.0625,-0.85 -3.7375,-0.85 -1.475,0 -2.225,0.4625 -0.75,0.4625 -0.75,1.275 0,0.55 0.275,0.9375 0.2875,0.3875 0.9125,0.7375 0.625,0.35 2.4,1.0125 2.4375,0.8875 3.2875,1.7875 0.8625,0.9 0.8625,2.2625 z"
         style="font-variant-ligatures:none;fill:#8232b5;stroke:#8232b5;stroke-width:1.12;stroke-miterlimit:2"
         id="path702563" /><path
         stroke-miterlimit="2"
         d="m 380.29,432.78 q 0.55,0 1.0625,-0.075 0.5125,-0.0875 0.8125,-0.175 v 1.5875 q -0.3375,0.1625 -1,0.2625 -0.65,0.1125 -1.175,0.1125 -3.975,0 -3.975,-4.1875 v -8.15 h -1.9625 v -1 l 1.9625,-0.8625 0.875,-2.925 h 1.2 v 3.175 h 3.975 v 1.6125 h -3.975 v 8.0625 q 0,1.2375 0.5875,1.9 0.5875,0.6625 1.6125,0.6625 z"
         style="font-variant-ligatures:none;fill:#9b329d;stroke:#9b329d;stroke-width:1.12;stroke-miterlimit:2"
         id="path702565" /><path
         stroke-miterlimit="2"
         d="m 394.94,434.24 -0.4125,-1.95 h -0.1 q -1.025,1.2875 -2.05,1.75 -1.0125,0.45 -2.5375,0.45 -2.0375,0 -3.2,-1.05 -1.15,-1.05 -1.15,-2.9875 0,-4.15 6.6375,-4.35 l 2.325,-0.075 v -0.85 q 0,-1.6125 -0.7,-2.375 -0.6875,-0.775 -2.2125,-0.775 -1.7125,0 -3.875,1.05 l -0.6375,-1.5875 q 1.0125,-0.55 2.2125,-0.8625 1.2125,-0.3125 2.425,-0.3125 2.45,0 3.625,1.0875 1.1875,1.0875 1.1875,3.4875 v 9.35 z m -4.6875,-1.4625 q 1.9375,0 3.0375,-1.0625 1.1125,-1.0625 1.1125,-2.975 v -1.2375 l -2.075,0.0875 q -2.475,0.0875 -3.575,0.775 -1.0875,0.675 -1.0875,2.1125 0,1.125 0.675,1.7125 0.6875,0.5875 1.9125,0.5875 z"
         style="font-variant-ligatures:none;fill:#b33284;stroke:#b33284;stroke-width:1.12;stroke-miterlimit:2"
         id="path702567" /><path
         stroke-miterlimit="2"
         d="m 404.32,420.54 v 8.8875 q 0,1.675 0.7625,2.5 0.7625,0.825 2.3875,0.825 2.15,0 3.1375,-1.175 1,-1.175 1,-3.8375 v -7.2 h 2.075 v 13.7 H 411.97 l -0.3,-1.8375 h -0.1125 q -0.6375,1.0125 -1.775,1.55 -1.125,0.5375 -2.575,0.5375 -2.5,0 -3.75,-1.1875 -1.2375,-1.1875 -1.2375,-3.8 v -8.96 z"
         style="font-variant-ligatures:none;fill:#cc326c;stroke:#cc326c;stroke-width:1.12;stroke-miterlimit:2"
         id="path702569" /><path
         stroke-miterlimit="2"
         d="m 425.92,420.29 q 0.9125,0 1.6375,0.15 l -0.2875,1.925 q -0.85,-0.1875 -1.5,-0.1875 -1.6625,0 -2.85,1.35 -1.175,1.35 -1.175,3.3625 v 7.35 h -2.075 v -13.7 h 1.7125 l 0.2375,2.5375 h 0.1 q 0.7625,-1.3375 1.8375,-2.0625 1.075,-0.725 2.3625,-0.725 z"
         style="font-variant-ligatures:none;fill:#e53254;stroke:#e53254;stroke-width:1.12;stroke-miterlimit:2"
         id="path702571" /><path
         stroke-miterlimit="2"
         d="m 440.14,434.24 -0.4125,-1.95 h -0.1 q -1.025,1.2875 -2.05,1.75 -1.0125,0.45 -2.5375,0.45 -2.0375,0 -3.2,-1.05 -1.15,-1.05 -1.15,-2.9875 0,-4.15 6.6375,-4.35 l 2.325,-0.075 v -0.85 q 0,-1.6125 -0.7,-2.375 -0.6875,-0.775 -2.2125,-0.775 -1.7125,0 -3.875,1.05 l -0.6375,-1.5875 q 1.0125,-0.55 2.2125,-0.8625 1.2125,-0.3125 2.425,-0.3125 2.45,0 3.625,1.0875 1.1875,1.0875 1.1875,3.4875 v 9.35 z m -4.6875,-1.4625 q 1.9375,0 3.0375,-1.0625 1.1125,-1.0625 1.1125,-2.975 v -1.2375 l -2.075,0.0875 q -2.475,0.0875 -3.575,0.775 -1.0875,0.675 -1.0875,2.1125 0,1.125 0.675,1.7125 0.6875,0.5875 1.9125,0.5875 z"
         style="font-variant-ligatures:none;fill:#da325b;stroke:#da325b;stroke-width:1.12;stroke-miterlimit:2"
         id="path702573" /><path
         stroke-miterlimit="2"
         d="m 456.94,434.24 v -8.8625 q 0,-1.675 -0.7625,-2.5 -0.7625,-0.825 -2.3875,-0.825 -2.15,0 -3.15,1.1625 -1,1.1625 -1,3.8375 v 7.1875 h -2.075 v -13.7 h 1.6875 l 0.3375,1.875 h 0.1 q 0.6375,-1.0125 1.7875,-1.5625 1.15,-0.5625 2.5625,-0.5625 2.475,0 3.725,1.2 1.25,1.1875 1.25,3.8125 v 8.9375 z"
         style="font-variant-ligatures:none;fill:#cf3363;stroke:#cf3363;stroke-width:1.12;stroke-miterlimit:2"
         id="path702575" /><path
         stroke-miterlimit="2"
         d="m 469.29,432.78 q 0.55,0 1.0625,-0.075 0.5125,-0.0875 0.8125,-0.175 v 1.5875 q -0.3375,0.1625 -1,0.2625 -0.65,0.1125 -1.175,0.1125 -3.975,0 -3.975,-4.1875 v -8.15 h -1.9625 v -1 l 1.9625,-0.8625 0.875,-2.925 h 1.2 v 3.175 h 3.975 v 1.6125 h -3.975 v 8.0625 q 0,1.2375 0.5875,1.9 0.5875,0.6625 1.6125,0.6625 z"
         style="font-variant-ligatures:none;fill:#c4336a;stroke:#c4336a;stroke-width:1.12;stroke-miterlimit:2"
         id="path702577" /><path
         stroke-miterlimit="2"
         d="m 494.07,421.29 q 0,2.775 -1.9,4.275 -1.8875,1.4875 -5.4125,1.4875 h -2.15 v 7.1875 h -2.125 v -18.275 h 4.7375 q 6.85,0 6.85,5.325 z m -9.4625,3.9375 h 1.9125 q 2.825,0 4.0875,-0.9125 1.2625,-0.9125 1.2625,-2.925 0,-1.8125 -1.1875,-2.7 -1.1875,-0.8875 -3.7,-0.8875 h -2.375 z"
         style="font-variant-ligatures:none;fill:#b83471;stroke:#b83471;stroke-width:1.12;stroke-miterlimit:2"
         id="path702579" /><path
         stroke-miterlimit="2"
         d="m 507.59,434.24 -0.4125,-1.95 h -0.1 q -1.025,1.2875 -2.05,1.75 -1.0125,0.45 -2.5375,0.45 -2.0375,0 -3.2,-1.05 -1.15,-1.05 -1.15,-2.9875 0,-4.15 6.6375,-4.35 l 2.325,-0.075 v -0.85 q 0,-1.6125 -0.7,-2.375 -0.6875,-0.775 -2.2125,-0.775 -1.7125,0 -3.875,1.05 l -0.6375,-1.5875 q 1.0125,-0.55 2.2125,-0.8625 1.2125,-0.3125 2.425,-0.3125 2.45,0 3.625,1.0875 1.1875,1.0875 1.1875,3.4875 v 9.35 z m -4.6875,-1.4625 q 1.9375,0 3.0375,-1.0625 1.1125,-1.0625 1.1125,-2.975 v -1.2375 l -2.075,0.0875 q -2.475,0.0875 -3.575,0.775 -1.0875,0.675 -1.0875,2.1125 0,1.125 0.675,1.7125 0.6875,0.5875 1.9125,0.5875 z"
         style="font-variant-ligatures:none;fill:#ad3478;stroke:#ad3478;stroke-width:1.12;stroke-miterlimit:2"
         id="path702581" /><path
         stroke-miterlimit="2"
         d="m 521.27,420.29 q 0.9125,0 1.6375,0.15 l -0.2875,1.925 q -0.85,-0.1875 -1.5,-0.1875 -1.6625,0 -2.85,1.35 -1.175,1.35 -1.175,3.3625 v 7.35 h -2.075 v -13.7 h 1.7125 l 0.2375,2.5375 h 0.1 q 0.7625,-1.3375 1.8375,-2.0625 1.075,-0.725 2.3625,-0.725 z"
         style="font-variant-ligatures:none;fill:#a23480;stroke:#a23480;stroke-width:1.12;stroke-miterlimit:2"
         id="path702583" /><path
         stroke-miterlimit="2"
         d="m 531.49,432.78 q 0.55,0 1.0625,-0.075 0.5125,-0.0875 0.8125,-0.175 v 1.5875 q -0.3375,0.1625 -1,0.2625 -0.65,0.1125 -1.175,0.1125 -3.975,0 -3.975,-4.1875 v -8.15 h -1.9625 v -1 l 1.9625,-0.8625 0.875,-2.925 h 1.2 v 3.175 h 3.975 v 1.6125 h -3.975 v 8.0625 q 0,1.2375 0.5875,1.9 0.5875,0.6625 1.6125,0.6625 z"
         style="font-variant-ligatures:none;fill:#973587;stroke:#973587;stroke-width:1.12;stroke-miterlimit:2"
         id="path702585" /><path
         stroke-miterlimit="2"
         d="m 547.09,434.24 v -8.8625 q 0,-1.675 -0.7625,-2.5 -0.7625,-0.825 -2.3875,-0.825 -2.15,0 -3.15,1.1625 -1,1.1625 -1,3.8375 v 7.1875 h -2.075 v -13.7 h 1.6875 l 0.3375,1.875 h 0.1 q 0.6375,-1.0125 1.7875,-1.5625 1.15,-0.5625 2.5625,-0.5625 2.475,0 3.725,1.2 1.25,1.1875 1.25,3.8125 v 8.9375 z"
         style="font-variant-ligatures:none;fill:#8c358e;stroke:#8c358e;stroke-width:1.12;stroke-miterlimit:2"
         id="path702587" /><path
         stroke-miterlimit="2"
         d="m 560.81,434.49 q -3.0375,0 -4.8,-1.85 -1.75,-1.85 -1.75,-5.1375 0,-3.3125 1.625,-5.2625 1.6375,-1.95 4.3875,-1.95 2.575,0 4.075,1.7 1.5,1.6875 1.5,4.4625 v 1.3125 H 556.41 q 0.0625,2.4125 1.2125,3.6625 1.1625,1.25 3.2625,1.25 2.2125,0 4.375,-0.925 v 1.85 q -1.1,0.475 -2.0875,0.675 -0.975,0.2125 -2.3625,0.2125 z m -0.5625,-12.462 q -1.65,0 -2.6375,1.075 -0.975,1.075 -1.15,2.975 h 7.1625 q 0,-1.9625 -0.875,-3 -0.875,-1.05 -2.5,-1.05 z"
         style="font-variant-ligatures:none;fill:#813696;stroke:#813696;stroke-width:1.12;stroke-miterlimit:2"
         id="path702589" /><path
         stroke-miterlimit="2"
         d="m 577.22,420.29 q 0.9125,0 1.6375,0.15 l -0.2875,1.925 q -0.85,-0.1875 -1.5,-0.1875 -1.6625,0 -2.85,1.35 -1.175,1.35 -1.175,3.3625 v 7.35 h -2.075 v -13.7 h 1.7125 l 0.2375,2.5375 h 0.1 q 0.7625,-1.3375 1.8375,-2.0625 1.075,-0.725 2.3625,-0.725 z"
         style="font-variant-ligatures:none;fill:#75369d;stroke:#75369d;stroke-width:1.12;stroke-miterlimit:2"
         id="path702591" /><path
         stroke-miterlimit="2"
         d="m 600.29,429.38 q 0,2.4125 -1.75,3.7625 -1.75,1.35 -4.75,1.35 -3.25,0 -5,-0.8375 v -2.05 q 1.125,0.475 2.45,0.75 1.325,0.275 2.625,0.275 2.125,0 3.2,-0.8 1.075,-0.8125 1.075,-2.25 0,-0.95 -0.3875,-1.55 -0.375,-0.6125 -1.275,-1.125 -0.8875,-0.5125 -2.7125,-1.1625 -2.55,-0.9125 -3.65,-2.1625 -1.0875,-1.25 -1.0875,-3.2625 0,-2.1125 1.5875,-3.3625 1.5875,-1.25 4.2,-1.25 2.725,0 5.0125,1 l -0.6625,1.85 q -2.2625,-0.95 -4.4,-0.95 -1.6875,0 -2.6375,0.725 -0.95,0.725 -0.95,2.0125 0,0.95 0.35,1.5625 0.35,0.6 1.175,1.1125 0.8375,0.5 2.55,1.1125 2.875,1.025 3.95,2.2 1.0875,1.175 1.0875,3.05 z"
         style="font-variant-ligatures:none;fill:#6a36a4;stroke:#6a36a4;stroke-width:1.12;stroke-miterlimit:2"
         id="path702593" /><path
         stroke-miterlimit="2"
         d="m 617.14,427.38 q 0,3.35 -1.6875,5.2375 -1.6875,1.875 -4.6625,1.875 -1.8375,0 -3.2625,-0.8625 -1.425,-0.8625 -2.2,-2.475 -0.775,-1.6125 -0.775,-3.775 0,-3.35 1.675,-5.2125 1.675,-1.875 4.65,-1.875 2.875,0 4.5625,1.9125 1.7,1.9125 1.7,5.175 z m -10.438,0 q 0,2.625 1.05,4 1.05,1.375 3.0875,1.375 2.0375,0 3.0875,-1.3625 1.0625,-1.375 1.0625,-4.0125 0,-2.6125 -1.0625,-3.9625 -1.05,-1.3625 -3.1125,-1.3625 -2.0375,0 -3.075,1.3375 -1.0375,1.3375 -1.0375,3.9875 z"
         style="font-variant-ligatures:none;fill:#5f37ab;stroke:#5f37ab;stroke-width:1.12;stroke-miterlimit:2"
         id="path702595" /><path
         stroke-miterlimit="2"
         d="m 624.44,434.24 h -2.075 v -19.45 h 2.075 z"
         style="font-variant-ligatures:none;fill:#5437b3;stroke:#5437b3;stroke-width:1.12;stroke-miterlimit:2"
         id="path702597" /><path
         stroke-miterlimit="2"
         d="m 632.42,420.54 v 8.8875 q 0,1.675 0.7625,2.5 0.7625,0.825 2.3875,0.825 2.15,0 3.1375,-1.175 1,-1.175 1,-3.8375 v -7.2 h 2.075 v 13.7 H 640.07 l -0.3,-1.8375 h -0.1125 q -0.6375,1.0125 -1.775,1.55 -1.125,0.5375 -2.575,0.5375 -2.5,0 -3.75,-1.1875 -1.2375,-1.1875 -1.2375,-3.8 v -8.96 z"
         style="font-variant-ligatures:none;fill:#4937ba;stroke:#4937ba;stroke-width:1.12;stroke-miterlimit:2"
         id="path702599" /><path
         stroke-miterlimit="2"
         d="m 652.19,432.78 q 0.55,0 1.0625,-0.075 0.5125,-0.0875 0.8125,-0.175 v 1.5875 q -0.3375,0.1625 -1,0.2625 -0.65,0.1125 -1.175,0.1125 -3.975,0 -3.975,-4.1875 v -8.15 h -1.9625 v -1 l 1.9625,-0.8625 0.875,-2.925 h 1.2 v 3.175 h 3.975 v 1.6125 h -3.975 v 8.0625 q 0,1.2375 0.5875,1.9 0.5875,0.6625 1.6125,0.6625 z"
         style="font-variant-ligatures:none;fill:#3d38c1;stroke:#3d38c1;stroke-width:1.12;stroke-miterlimit:2"
         id="path702601" /><path
         stroke-miterlimit="2"
         d="m 660.49,434.24 h -2.075 v -13.7 h 2.075 z m -2.25,-17.412 q 0,-0.7125 0.35,-1.0375 0.35,-0.3375 0.875,-0.3375 0.5,0 0.8625,0.3375 0.3625,0.3375 0.3625,1.0375 0,0.7 -0.3625,1.05 -0.3625,0.3375 -0.8625,0.3375 -0.525,0 -0.875,-0.3375 -0.35,-0.35 -0.35,-1.05 z"
         style="font-variant-ligatures:none;fill:#3238c8;stroke:#3238c8;stroke-width:1.12;stroke-miterlimit:2"
         id="path702603" /><path
         stroke-miterlimit="2"
         d="m 678.34,427.38 q 0,3.35 -1.6875,5.2375 -1.6875,1.875 -4.6625,1.875 -1.8375,0 -3.2625,-0.8625 -1.425,-0.8625 -2.2,-2.475 -0.775,-1.6125 -0.775,-3.775 0,-3.35 1.675,-5.2125 1.675,-1.875 4.65,-1.875 2.875,0 4.5625,1.9125 1.7,1.9125 1.7,5.175 z m -10.438,0 q 0,2.625 1.05,4 1.05,1.375 3.0875,1.375 2.0375,0 3.0875,-1.3625 1.0625,-1.375 1.0625,-4.0125 0,-2.6125 -1.0625,-3.9625 -1.05,-1.3625 -3.1125,-1.3625 -2.0375,0 -3.075,1.3375 -1.0375,1.3375 -1.0375,3.9875 z"
         style="font-variant-ligatures:none;fill:#2739d0;stroke:#2739d0;stroke-width:1.12;stroke-miterlimit:2"
         id="path702605" /><path
         stroke-miterlimit="2"
         d="m 692.94,434.24 v -8.8625 q 0,-1.675 -0.7625,-2.5 -0.7625,-0.825 -2.3875,-0.825 -2.15,0 -3.15,1.1625 -1,1.1625 -1,3.8375 v 7.1875 h -2.075 v -13.7 h 1.6875 l 0.3375,1.875 h 0.1 q 0.6375,-1.0125 1.7875,-1.5625 1.15,-0.5625 2.5625,-0.5625 2.475,0 3.725,1.2 1.25,1.1875 1.25,3.8125 v 8.9375 z"
         style="font-variant-ligatures:none;fill:#1c39d7;stroke:#1c39d7;stroke-width:1.12;stroke-miterlimit:2"
         id="path702607" /><path
         stroke-miterlimit="2"
         class="c1"
         d="m 317.99,357.91 c 0,-9.125 -7.375,-18.5 -17.75,-18.5 h -34.375 l -5.625,63 h 18 l 2,-22.625 h 2.375 l 10.75,22.625 h 20.875 l -11.5,-24.125 c 10,-3 15.25,-10.75 15.25,-20.375 z m -23.75,-4.875 c 3.125,0 5.75,3.25 5.75,6 0,2.75 -2.25,7.5 -7.25,7.5 h -11.25 l 1.25,-13.375 h 11.5 z"
         style="font-variant-ligatures:normal;fill:#3c4bc3;stroke-width:0;stroke-miterlimit:2"
         id="path39" /><path
         stroke-miterlimit="2"
         class="highlight"
         d="m 314.24,402.54 h -20.875 l -10.75,-22.625 h 9.125 c 4.125,0 7.75,-0.5 10.875,-1.5 z"
         style="font-variant-ligatures:normal;opacity:0;stroke-width:0;stroke-miterlimit:2"
         id="path48" /><path
         stroke-miterlimit="2"
         class="c1"
         d="m 366.08,339.41 h -34.375 l -5.625,63 h 18 l 2,-22.625 h 11.5 c 17.125,0 26.25,-9.5 26.25,-22 0,-9 -7.375,-18.375 -17.75,-18.375 z m -7.5,26.875 h -11.25 l 1.25,-13.375 h 11.625 c 3.125,0 5.75,3.25 5.75,6 -0.125,2.625 -2.375,7.375 -7.375,7.375 z"
         style="font-variant-ligatures:normal;fill:#3c4bc3;stroke-width:0;stroke-miterlimit:2"
         id="path51" /><path
         stroke-miterlimit="2"
         class="highlight"
         d="m 330.46,352.91 h 18 l -4.375,49.5 h -18 z"
         style="font-variant-ligatures:normal;opacity:0;stroke-width:0;stroke-miterlimit:2"
         id="path60" /><path
         stroke-miterlimit="2"
         class="c1"
         d="m 543.56,339.41 h 18 l -1.25,13.5 h -17.875 l -4.375,49.5 h -18.125 l 4.375,-49.5 h -18 l 1.25,-13.5 h 18 z"
         style="font-variant-ligatures:normal;fill:#3c4bc3;stroke-width:0;stroke-miterlimit:2"
         id="path63" /><path
         stroke-miterlimit="2"
         class="highlight"
         d="m 524.31,352.91 h 18 l -4.375,49.5 h -18 z"
         style="font-variant-ligatures:normal;opacity:0;stroke-width:0;stroke-miterlimit:2"
         id="path70" /><path
         stroke-miterlimit="2"
         class="c1"
         d="m 589.79,339.41 h 26.875 l -1.25,13.5 H 588.54 l -1,11.25 h 17.875 l -1.25,13.5 h -17.75 l -1,11.25 h 27.125 l -1.25,13.5 h -45.125 l 4.375,-49.5 1.125,-13.5 z"
         style="font-variant-ligatures:normal;fill:#3c4bc3;stroke-width:0;stroke-miterlimit:2"
         id="path73" /><path
         stroke-miterlimit="2"
         class="highlight"
         d="m 570.54,352.91 h 18 l -4.375,49.5 h -18 z"
         style="font-variant-ligatures:normal;opacity:0;stroke-width:0;stroke-miterlimit:2"
         id="path80" /><path
         stroke-miterlimit="2"
         class="c1"
         d="M 660.75,339.41 H 644 l -24.75,63 h 19.125 l 4,-11.125 h 19.375 l 2,11.125 h 18.75 l -13.5,-63 z m -13.625,38.375 8,-22.5 4.125,22.5 z"
         style="font-variant-ligatures:normal;fill:#3c4bc3;stroke-width:0;stroke-miterlimit:2"
         id="path83" /><path
         stroke-miterlimit="2"
         class="highlight"
         d="m 661.75,391.28 h -19.375 l 4.75,-13.5 h 12.125 z"
         style="font-variant-ligatures:normal;opacity:0;stroke-width:0;stroke-miterlimit:2"
         id="path90" /><path
         stroke-miterlimit="2"
         class="c1"
         d="m 749.94,339.41 h 13.875 l -5.625,63 h -18 l 3.625,-41.125 -11.5,41.125 h -13.5 l -4.5,-41.25 -3.75,41.25 h -18 l 5.625,-63 h 28 l 3.875,39.875 11.125,-39.875 h 4.625 z"
         style="font-variant-ligatures:normal;fill:#3c4bc3;stroke-width:0;stroke-miterlimit:2"
         id="path93" /><path
         stroke-miterlimit="2"
         class="highlight"
         d="m 732.32,402.41 h -13.5 l -4.5,-41.25 2,-21.75 h 9.875 z"
         style="font-variant-ligatures:normal;opacity:0;stroke-width:0;stroke-miterlimit:2"
         id="path100" /><path
         style="fill:#e53254;stroke-width:0.42429"
         d="m 446.25,335.67 h -10.616 v 7.0771 l -0.21821,2.3e-4 c -0.12008,0 -0.41991,0.0106 -0.66643,0.0236 -0.24652,0.0132 -0.66053,0.0451 -0.92002,0.0712 -0.25949,0.026 -0.64708,0.0743 -0.86105,0.10734 -0.21396,0.0333 -0.52726,0.0868 -0.69591,0.11937 -0.16867,0.0323 -0.48712,0.10167 -0.70771,0.15381 -0.22057,0.0521 -0.59731,0.15144 -0.83745,0.2208 -0.24015,0.0694 -0.6117,0.18637 -0.82566,0.25997 -0.21397,0.0736 -0.54542,0.1958 -0.73601,0.27176 -0.19085,0.076 -0.46684,0.19037 -0.61335,0.2543 -0.14673,0.0642 -0.39915,0.17952 -0.56146,0.25643 -0.16206,0.0771 -0.45929,0.22835 -0.66053,0.33639 -0.20098,0.10781 -0.55131,0.30762 -0.77847,0.44351 -0.22694,0.13588 -0.59328,0.36943 -0.81387,0.51899 -0.22057,0.14956 -0.56545,0.39655 -0.76668,0.54894 -0.20099,0.15239 -0.47699,0.3706 -0.61335,0.48453 -0.13612,0.11394 -0.38476,0.33003 -0.55251,0.48008 -0.16772,0.15004 -0.485,0.45339 -0.70512,0.67398 -0.22009,0.22057 -0.54495,0.56544 -0.72188,0.76668 -0.17669,0.20099 -0.40669,0.47181 -0.51118,0.60156 -0.10426,0.12974 -0.28685,0.3647 -0.40528,0.52229 -0.11842,0.15735 -0.33663,0.46519 -0.48453,0.68412 -0.14815,0.21868 -0.3607,0.54873 -0.47253,0.73317 -0.11205,0.18471 -0.30125,0.51381 -0.42061,0.73129 -0.11937,0.21774 -0.29606,0.56027 -0.39231,0.76151 -0.0962,0.20099 -0.23897,0.51428 -0.31682,0.69592 -0.0781,0.18164 -0.18943,0.45245 -0.24746,0.60155 -0.0583,0.14909 -0.17339,0.47108 -0.25619,0.71526 -0.0826,0.24416 -0.20312,0.63151 -0.26751,0.86104 -0.0646,0.2293 -0.15995,0.60274 -0.21232,0.82991 -0.0521,0.22693 -0.12149,0.55908 -0.15451,0.73766 -0.0328,0.17882 -0.0856,0.50791 -0.11772,0.7313 -0.0318,0.22364 -0.0741,0.58174 -0.0936,0.7957 -0.0196,0.21397 -0.0425,0.44232 -0.0507,0.5072 -0.008,0.0649 -0.0229,5.3142 -0.0319,11.665 l -0.0168,11.547 -0.0394,0.31847 c -0.0217,0.17504 -0.067,0.48288 -0.10073,0.68412 -0.0337,0.20122 -0.10781,0.55131 -0.1649,0.77847 -0.0568,0.22694 -0.16065,0.58268 -0.23024,0.79028 -0.0698,0.20759 -0.17221,0.48878 -0.22788,0.62514 -0.0554,0.13635 -0.17717,0.40693 -0.27035,0.60155 -0.0932,0.19462 -0.24204,0.48123 -0.33097,0.63694 -0.0887,0.1557 -0.25053,0.41897 -0.35975,0.58505 -0.10899,0.16631 -0.29205,0.42628 -0.4067,0.57796 -0.11441,0.15192 -0.31375,0.39797 -0.44304,0.54729 -0.12904,0.14909 -0.36636,0.40292 -0.52747,0.56379 -0.16088,0.16112 -0.41448,0.39844 -0.56379,0.52773 -0.14909,0.12903 -0.40929,0.33852 -0.57796,0.46544 -0.16867,0.12668 -0.42866,0.3095 -0.57796,0.40599 -0.14909,0.0967 -0.39325,0.24534 -0.54258,0.33026 -0.14909,0.0849 -0.37957,0.20878 -0.51216,0.27506 -0.13234,0.0663 -0.38711,0.18306 -0.56616,0.25949 -0.17882,0.0767 -0.42085,0.17316 -0.53762,0.21468 -0.11677,0.0415 -0.32908,0.11229 -0.4718,0.15734 -0.14272,0.0453 -0.40269,0.11819 -0.57796,0.1623 -0.17504,0.0441 -0.4671,0.10758 -0.64874,0.14108 -0.18164,0.0337 -0.50672,0.0814 -0.72255,0.10615 -0.21586,0.025 -0.57394,0.0526 -0.79618,0.0616 l -0.40604,0.017 v -7.0856 h -21.231 v 21.231 h 21.231 v -7.0771 l 0.21821,-2.4e-4 c 0.12007,0 0.42535,-0.0111 0.67822,-0.0243 0.25289,-0.0132 0.66715,-0.0451 0.92002,-0.071 0.25289,-0.0257 0.63529,-0.0738 0.84925,-0.10663 0.2142,-0.0328 0.57444,-0.0967 0.80114,-0.14178 0.22647,-0.0453 0.58199,-0.12479 0.79027,-0.17693 0.20807,-0.0519 0.51072,-0.13257 0.67279,-0.17881 0.16184,-0.0465 0.5072,-0.15664 0.76716,-0.2451 0.2602,-0.0885 0.64589,-0.23048 0.85701,-0.31564 0.21137,-0.0854 0.55085,-0.23024 0.75442,-0.32201 0.20359,-0.0918 0.53481,-0.25218 0.7358,-0.35621 0.20123,-0.10427 0.52488,-0.28073 0.7195,-0.39207 0.19462,-0.11135 0.47062,-0.27577 0.61335,-0.36565 0.14272,-0.0899 0.40811,-0.26468 0.58976,-0.38853 0.18164,-0.12385 0.45763,-0.32083 0.61334,-0.43782 0.1557,-0.11725 0.38924,-0.29842 0.51899,-0.40293 0.12975,-0.1045 0.40056,-0.33498 0.60155,-0.5119 0.20123,-0.17692 0.53197,-0.48712 0.73508,-0.68929 0.20311,-0.20217 0.48385,-0.49281 0.62349,-0.64589 0.13989,-0.15286 0.38381,-0.43358 0.54232,-0.62349 0.15829,-0.19014 0.41472,-0.515 0.56969,-0.72235 0.15498,-0.20735 0.38829,-0.53477 0.51826,-0.72799 0.13022,-0.19296 0.34796,-0.53693 0.48407,-0.76384 0.13611,-0.22717 0.33593,-0.57749 0.44372,-0.77848 0.10804,-0.20122 0.25925,-0.49845 0.33639,-0.66052 0.0769,-0.16231 0.19226,-0.41472 0.25643,-0.56146 0.0639,-0.1465 0.17834,-0.42251 0.2543,-0.61335 0.076,-0.19061 0.19816,-0.52204 0.27177,-0.73601 0.0736,-0.2142 0.1906,-0.58577 0.25996,-0.82566 0.0693,-0.24015 0.16961,-0.61996 0.22293,-0.84428 0.0533,-0.22435 0.13305,-0.60652 0.17763,-0.84925 0.0444,-0.24275 0.10238,-0.60062 0.12904,-0.79524 0.0266,-0.19462 0.0644,-0.51827 0.0838,-0.71951 0.0191,-0.20122 0.0458,-0.56735 0.059,-0.81386 0.0153,-0.28969 0.0241,-4.3447 0.0241,-11.465 2.4e-4,-7.2065 0.009,-11.135 0.0243,-11.359 0.0132,-0.18826 0.0401,-0.4671 0.0597,-0.61997 0.0196,-0.15287 0.0571,-0.39703 0.0833,-0.54258 0.026,-0.14555 0.0738,-0.38145 0.10639,-0.52416 0.0323,-0.14272 0.10757,-0.42415 0.16725,-0.62514 0.0597,-0.20123 0.14839,-0.47274 0.19675,-0.60342 0.0486,-0.13093 0.14366,-0.36966 0.21136,-0.53078 0.0677,-0.16112 0.201,-0.44703 0.2963,-0.63507 0.0953,-0.18825 0.26162,-0.4881 0.36919,-0.66643 0.10781,-0.17834 0.28261,-0.44915 0.38877,-0.60155 0.10615,-0.1524 0.30407,-0.41519 0.43994,-0.58386 0.13564,-0.16867 0.36187,-0.43027 0.50269,-0.58148 0.14084,-0.15098 0.37297,-0.38335 0.51568,-0.51615 0.14272,-0.13305 0.36895,-0.33309 0.50295,-0.4449 0.13375,-0.11159 0.40717,-0.32036 0.60724,-0.46332 0.20004,-0.1432 0.50977,-0.34843 0.68836,-0.45598 0.17858,-0.10758 0.52628,-0.29464 0.77283,-0.41543 0.24652,-0.12102 0.57559,-0.27058 0.7313,-0.33262 0.1557,-0.0618 0.43714,-0.16419 0.62514,-0.22718 0.18826,-0.0632 0.53316,-0.16206 0.76669,-0.2201 0.23354,-0.0578 0.57868,-0.13116 0.76668,-0.16277 0.18825,-0.0318 0.49069,-0.0741 0.67233,-0.0939 0.18164,-0.0201 0.50812,-0.0434 0.7254,-0.0524 l 0.39513,-0.016 v 7.09 h 21.231 v -21.231 z m 0,7.0771 h 3.5386 v 7.0771 h -7.0771 v -7.0771 z m -49.54,49.54 h 3.5386 v 7.0771 h -7.0771 v -7.0771 z"
         id="icon" /></g></g></svg>